<?xml version="1.0" encoding="UTF-8"?>
<svg version="1.1" xmlns="http://www.w3.org/2000/svg" width="1192" height="880">
<path d="M0 0 C393.36 0 786.72 0 1192 0 C1192 290.4 1192 580.8 1192 880 C798.64 880 405.28 880 0 880 C0 589.6 0 299.2 0 0 Z " fill="#FEFEFE" transform="translate(0,0)"/>
<path d="M0 0 C0.94327148 0.01256836 1.88654297 0.02513672 2.85839844 0.03808594 C12.81213745 0.22110028 21.91644012 1.33682598 31.5078125 4.03125 C34.32637167 4.81313218 37.0618078 5.4340118 39.9375 5.9375 C47.43227532 7.34357661 54.71322761 9.78522695 62 12 C62 12.66 62 13.32 62 14 C62.71542969 14.13277344 63.43085937 14.26554688 64.16796875 14.40234375 C66.94188322 14.98773535 69.60299275 15.73158444 72.3125 16.5625 C73.63701172 16.96662109 73.63701172 16.96662109 74.98828125 17.37890625 C75.65214844 17.58386719 76.31601562 17.78882813 77 18 C77 18.66 77 19.32 77 20 C77.515625 20.103125 78.03125 20.20625 78.5625 20.3125 C81.86026435 21.24263866 84.86633332 22.61395512 88 24 C88 24.66 88 25.32 88 26 C88.721875 26.103125 89.44375 26.20625 90.1875 26.3125 C93.27793421 27.06793947 95.41743841 28.15531315 98 30 C98 30.66 98 31.32 98 32 C98.70253906 32.25265625 99.40507813 32.5053125 100.12890625 32.765625 C108.18063547 36.22732083 115.0087245 41.70147961 121 48 C121.99 48.33 122.98 48.66 124 49 C125.61328125 50.671875 125.61328125 50.671875 127.3125 52.75 C129.45387607 55.283586 131.52229475 57.56704701 134.125 59.625 C137.19681109 62.16258308 139.49164901 64.91279878 142 68 C144.33015167 70.38698464 146.69610035 72.7139768 149.125 75 C151 77 151 77 152.265625 79.1328125 C154.06779609 82.11207732 156.03833913 84.89848136 158.07324219 87.72094727 C166.15374521 98.93779406 173.30412512 110.42167142 179.5625 122.75 C179.90958008 123.43006104 180.25666016 124.11012207 180.61425781 124.81079102 C182.05908613 127.72971468 183 129.699004 183 133 C183.66 133 184.32 133 185 133 C185.32613281 133.92941406 185.65226562 134.85882813 185.98828125 135.81640625 C188.59469992 143.25922081 188.59469992 143.25922081 191.5625 150.5625 C194.61929971 157.87223845 196.7747453 165.51314293 198.34716797 173.27124023 C199.01652902 176.06908933 199.84669749 178.79627888 200.70307922 181.54176331 C203.70787329 191.27641304 205.79751938 200.9934825 207.3125 211.0625 C207.44140625 211.90752075 207.5703125 212.7525415 207.703125 213.62316895 C210.13680766 230.14102948 210.5413973 246.57353276 210.5 263.25 C210.49835846 264.42861603 210.49671692 265.60723206 210.49502563 266.82156372 C210.42343131 285.60565464 209.73474374 304.25670778 205.71484375 322.65625 C205.04587552 325.78541287 204.53295121 328.89840337 204.0625 332.0625 C203.18903747 337.40189193 201.82181936 342.48338635 200.2734375 347.6640625 C199.22256004 351.18596874 198.25039928 354.7260732 197.2890625 358.2734375 C196.98444092 359.38952393 196.67981934 360.50561035 196.3659668 361.65551758 C195.7553644 363.89610567 195.1499076 366.1381035 194.55004883 368.3815918 C194.26411865 369.42226807 193.97818848 370.46294434 193.68359375 371.53515625 C193.43150146 372.467229 193.17940918 373.39930176 192.91967773 374.35961914 C191.9349689 377.18670332 190.58260498 379.46761985 189 382 C188.32507201 383.87863813 187.70164584 385.77640382 187.125 387.6875 C185.51724056 392.71562799 183.52178575 397.28245349 181.05078125 401.94140625 C179.88220096 404.10398536 179.88220096 404.10398536 179 407 C178.34 407 177.68 407 177 407 C176.84144531 407.56847656 176.68289063 408.13695312 176.51953125 408.72265625 C175.05778937 413.56013353 173.36060539 417.2983606 170.2734375 421.29296875 C168.22639031 424.03701667 166.6505304 427.00459298 165 430 C164.34 430 163.68 430 163 430 C162.89558594 430.55171875 162.79117187 431.1034375 162.68359375 431.671875 C161.85439616 434.49588509 160.5720035 436.72554916 159.0625 439.25 C158.53785156 440.14203125 158.01320313 441.0340625 157.47265625 441.953125 C156.74369141 442.96632813 156.74369141 442.96632813 156 444 C155.34 444 154.68 444 154 444 C153.67 445.32 153.34 446.64 153 448 C152.34 448 151.68 448 151 448 C150.9175 448.598125 150.835 449.19625 150.75 449.8125 C149.78423221 452.62932273 148.51131433 453.47799132 146 455 C145.34 455 144.68 455 144 455 C143.814375 455.66 143.62875 456.32 143.4375 457 C141.69617525 460.63406905 139.36715439 463.18068357 136.65625 466.1328125 C134.83198095 468.10343191 134.83198095 468.10343191 133 471 C132.236875 471.433125 131.47375 471.86625 130.6875 472.3125 C127.99589808 474.00257562 126.52623955 475.78116406 124.58203125 478.25 C119.89326249 483.43658865 113.98316322 487.46106276 108 491 C106.44870178 492.0694957 104.90722687 493.15335602 103.375 494.25 C95.8774911 499.52395559 88.54370682 504.58251727 80 508 C77.39898174 509.3144931 74.81320153 510.65423087 72.234375 512.01171875 C70 513 70 513 67 513 C67 513.66 67 514.32 67 515 C65.9378125 515.32613281 64.875625 515.65226563 63.78125 515.98828125 C62.35412798 516.4295624 60.92704683 516.87097576 59.5 517.3125 C58.80390625 517.52583984 58.1078125 517.73917969 57.390625 517.95898438 C53.90880004 519.03899489 50.50136587 520.1823963 47.1171875 521.5390625 C42.40355664 523.33707525 37.57994085 524.18999955 32.625 525.0625 C30.8462706 525.38625996 29.06762441 525.71047743 27.2890625 526.03515625 C26.51256348 526.1731665 25.73606445 526.31117676 24.93603516 526.45336914 C23.21436401 526.77390978 21.49567691 527.11337507 19.7870636 527.4974823 C13.84911415 528.79692056 8.28386003 529.28265576 2.21484375 529.23046875 C1.31488174 529.23001053 0.41491974 529.22955231 -0.51231384 529.2290802 C-2.4056023 529.22608036 -4.29888879 529.21826295 -6.19213867 529.20581055 C-9.03118043 529.18769979 -11.86989112 529.18530053 -14.70898438 529.18554688 C-33.22637711 529.15082134 -51.27908269 528.97899638 -68.92578125 522.68359375 C-71.10252782 521.96621023 -73.25690742 521.46715009 -75.5 521 C-82.59386966 519.497479 -89.17647452 517.04473919 -95.7578125 514.02734375 C-97.2236614 513.35570915 -98.6975286 512.70123775 -100.1796875 512.06640625 C-113.65778101 506.28665441 -126.09687923 498.50506793 -138 490 C-138.72058594 489.51015625 -139.44117188 489.0203125 -140.18359375 488.515625 C-141.82411089 487.39333963 -143.4181574 486.20357589 -145 485 C-145 484.34 -145 483.68 -145 483 C-146.11375 482.6596875 -146.11375 482.6596875 -147.25 482.3125 C-150 481 -150 481 -151.83984375 478.6875 C-154.10748871 475.86627083 -156.45490604 473.8983966 -159.3125 471.6875 C-165.22838447 466.93901673 -170.16383878 461.92176172 -174.3125 455.5625 C-175.747584 452.91744289 -175.747584 452.91744289 -178 452 C-179.02373468 450.34780598 -180.02020286 448.67862305 -181 447 C-182.15210133 445.42672956 -183.32002155 443.86497165 -184.5 442.3125 C-188.78460618 436.49370274 -192.51961753 430.39147161 -196.23046875 424.19458008 C-196.67648437 423.45103271 -197.1225 422.70748535 -197.58203125 421.94140625 C-197.97624268 421.27826416 -198.3704541 420.61512207 -198.77661133 419.93188477 C-199.99637879 417.94202598 -199.99637879 417.94202598 -201.55737305 415.96850586 C-203.58295843 413.2045365 -204.67333576 410.15082758 -206 407 C-206.495 406.195625 -206.99 405.39125 -207.5 404.5625 C-209.0445189 401.92394688 -210.0815098 399.26146982 -211.10546875 396.38671875 C-212.58530223 392.43834209 -214.31669807 388.59442209 -216.01171875 384.734375 C-217 382 -217 382 -217 378 C-217.66 378 -218.32 378 -219 378 C-219.18175781 377.2265625 -219.36351562 376.453125 -219.55078125 375.65625 C-221.15391997 368.84764698 -221.15391997 368.84764698 -223.4375 362.25 C-229.53893387 346.77396721 -232.18367149 328.99606609 -234.6875 312.625 C-234.86647827 311.46822754 -234.86647827 311.46822754 -235.04907227 310.28808594 C-237.12317916 296.08877716 -237.18630783 281.94911006 -237.18530273 267.62646484 C-237.18749048 264.14017544 -237.20570249 260.6542025 -237.22460938 257.16796875 C-237.2544972 245.5805923 -237.00207805 234.43672996 -235 223 C-234.66493646 220.81797331 -234.33157176 218.63568501 -234 216.453125 C-233.66870025 214.38508986 -233.33539171 212.31737545 -233 210.25 C-232.835 209.21746094 -232.67 208.18492187 -232.5 207.12109375 C-231.6875183 202.07482067 -230.84734202 197.03384022 -229.9609375 192 C-229.80931152 191.13890625 -229.65768555 190.2778125 -229.50146484 189.390625 C-228.86382593 186.35081963 -227.89353079 183.50269994 -226.8515625 180.58203125 C-225.74911239 177.23928115 -224.87990737 173.84370068 -224 170.4375 C-222.80319954 165.84845138 -221.54519569 161.35451466 -219.77734375 156.94921875 C-218.80454493 154.50988904 -217.93990824 152.03767889 -217.0625 149.5625 C-215.54654685 145.3878866 -213.89783678 141.32167674 -212.046875 137.28515625 C-211.32918007 135.71854604 -210.63222515 134.14231612 -209.953125 132.55859375 C-206.24200427 124.03064166 -201.63136082 116.05014339 -197 108 C-196.28731536 106.75416074 -195.57505927 105.50807621 -194.86328125 104.26171875 C-192.9091551 100.84097381 -190.95456735 97.42049285 -189 94 C-188.34 94 -187.68 94 -187 94 C-186.690625 93.21625 -186.38125 92.4325 -186.0625 91.625 C-185 89 -185 89 -184 87 C-183.34 87 -182.68 87 -182 87 C-181.8453125 86.1028125 -181.8453125 86.1028125 -181.6875 85.1875 C-180.8815922 82.6232479 -179.90371163 81.86837592 -178 80 C-176.78403541 78.46434519 -175.57690934 76.92168015 -174.375 75.375 C-169.91063048 69.87412677 -165.05788933 64.83302864 -160.0625 59.8125 C-159.30437012 59.04534668 -158.54624023 58.27819336 -157.76513672 57.48779297 C-157.04986816 56.7763916 -156.33459961 56.06499023 -155.59765625 55.33203125 C-154.95320557 54.68983643 -154.30875488 54.0476416 -153.64477539 53.38598633 C-152 52 -152 52 -150 52 C-149.78085937 51.42378906 -149.56171875 50.84757812 -149.3359375 50.25390625 C-147.5777062 47.28753356 -145.4473013 45.90100452 -142.625 43.9375 C-141.19027344 42.93009766 -141.19027344 42.93009766 -139.7265625 41.90234375 C-138.82679688 41.27457031 -137.92703125 40.64679688 -137 40 C-136.26523437 39.42378906 -135.53046875 38.84757812 -134.7734375 38.25390625 C-133 37 -133 37 -131 37 C-131 36.34 -131 35.68 -131 35 C-130.071875 34.484375 -129.14375 33.96875 -128.1875 33.4375 C-123.89291965 30.99719874 -119.77711889 28.29501497 -115.6484375 25.5859375 C-113.14338391 24.08586116 -110.71917629 23.0416745 -108 22 C-106.4840625 21.1028125 -106.4840625 21.1028125 -104.9375 20.1875 C-98.08804327 16.17696284 -90.52225896 13.4553985 -83 11 C-81.453125 10.443125 -81.453125 10.443125 -79.875 9.875 C-77 9 -77 9 -73 9 C-73 8.34 -73 7.68 -73 7 C-69.81315572 6.3509032 -66.62541405 5.70632052 -63.4375 5.0625 C-62.54224609 4.88009766 -61.64699219 4.69769531 -60.72460938 4.50976562 C-56.79420467 3.71792585 -52.88677181 2.95290133 -48.91015625 2.43359375 C-46.1136222 2.31201642 -46.1136222 2.31201642 -45 1 C-30.11767017 -0.66271547 -14.94402315 -0.20761723 0 0 Z " fill="#FAAD3D" transform="translate(571,173)"/>
<path d="M0 0 C0.99128906 0.20625 1.98257813 0.4125 3.00390625 0.625 C13.7282986 3.08587752 23.7094892 6.79282693 32.9765625 12.765625 C35.07516763 14.14955487 35.07516763 14.14955487 38 15 C38 15.66 38 16.32 38 17 C38.804375 17.37125 38.804375 17.37125 39.625 17.75 C55.7549928 26.23946989 69.37835613 42.11193367 78.203125 57.84375 C79.80520349 60.98164449 79.80520349 60.98164449 82 63 C82.73504856 64.67056491 83.4650661 66.34366794 84.16015625 68.03125 C84.97470244 69.94069781 85.86866159 71.7764866 86.8125 73.625 C94.06488414 88.01862062 99.12750788 102.3626712 103 118 C103.24137695 118.94020996 103.48275391 119.88041992 103.73144531 120.84912109 C105.76584533 129.11402874 106.83904347 137.28310471 107.625 145.75 C107.86335882 148.24516038 108.10533456 150.73997887 108.3515625 153.234375 C108.45291504 154.31944336 108.55426758 155.40451172 108.65869141 156.52246094 C108.73742843 158.93875862 108.73742843 158.93875862 110 160 C110.12662185 162.85704929 110.18835733 165.68848982 110.203125 168.546875 C110.20995804 169.42158951 110.21679108 170.29630402 110.22383118 171.19752502 C110.24102204 174.0483885 110.24717133 176.89908758 110.25 179.75 C110.25300613 181.1935939 110.25300613 181.1935939 110.256073 182.66635132 C110.26276407 195.69850825 109.76719914 208.24489608 107.31982422 221.07470703 C106.84113993 223.95631335 106.74162737 226.83431585 106.625 229.75 C106.16259692 237.17734953 103.81689789 243.97872754 101.59472656 251.02978516 C100.77564139 253.74325697 100.13478811 256.48830692 99.5 259.25 C97.93115187 265.73932636 95.47788377 271.81344151 93 278 C92.49564018 279.39426392 91.99493763 280.78986362 91.5 282.1875 C86.44422546 295.51386223 78.49350165 309.94696383 68.60546875 320.28125 C66.75215889 322.26532868 65.17947682 324.38230653 63.5625 326.5625 C59.83077629 331.42046466 55.47421187 336.39699739 49.82421875 339.00390625 C47.64696624 339.92395276 47.64696624 339.92395276 47 343 C45.34973837 343.98380982 43.69516683 344.96552315 41.984375 345.83984375 C39.87295436 346.99951289 39.87295436 346.99951289 37.76171875 348.87890625 C19.07463452 363.23122129 -8.0952607 366.97778124 -31 365 C-35.40683601 364.41829765 -39.76155752 363.65773531 -44.125 362.8125 C-45.15544434 362.61648193 -46.18588867 362.42046387 -47.24755859 362.21850586 C-54.11274008 360.76696262 -59.88269929 358.4060317 -66 355 C-66.78028564 354.58274658 -67.56057129 354.16549316 -68.36450195 353.7355957 C-79.02172451 348.02605555 -88.54165197 341.65973727 -97 333 C-97.66644531 332.36707031 -98.33289063 331.73414063 -99.01953125 331.08203125 C-99.73496094 330.39496094 -100.45039063 329.70789063 -101.1875 329 C-101.86167969 328.360625 -102.53585937 327.72125 -103.23046875 327.0625 C-105 325 -105 325 -106.05078125 322.3125 C-106.36402344 321.549375 -106.67726563 320.78625 -107 320 C-107.99 319.67 -108.98 319.34 -110 319 C-111.82421875 316.6015625 -111.82421875 316.6015625 -113.6875 313.625 C-114.62142578 312.15933594 -114.62142578 312.15933594 -115.57421875 310.6640625 C-117 308 -117 308 -117 305 C-117.66 305 -118.32 305 -119 305 C-123.44966103 298.86703611 -126.73876547 291.81703218 -130 285 C-130.39960938 284.2059375 -130.79921875 283.411875 -131.2109375 282.59375 C-134.07642438 276.68026116 -136.2041435 270.62702962 -138.1875 264.375 C-138.43749756 263.58746338 -138.68749512 262.79992676 -138.94506836 261.98852539 C-140.36349982 257.39694634 -141.52928785 252.80811325 -142.52856445 248.10839844 C-143.22029687 245.01476761 -144.13551873 241.98682261 -145 238.9375 C-147.87615762 228.19059565 -148.31843209 217.06024022 -149 206 C-148.01 206 -147.02 206 -146 206 C-146 204.02 -146 202.04 -146 200 C-146.639375 199.814375 -147.27875 199.62875 -147.9375 199.4375 C-150 198 -150 198 -150.6171875 194.9921875 C-152.02559341 182.75205913 -151.19353423 170.23801391 -149.6171875 158.0625 C-149.12472174 154.23462737 -148.76544437 150.40857554 -148.4453125 146.5625 C-146.02463465 118.72470476 -139.45173068 85.86074662 -122 63 C-121.27648573 61.01985568 -120.59734611 59.02178685 -120 57 C-119.34 57 -118.68 57 -118 57 C-117.7525 55.88625 -117.505 54.7725 -117.25 53.625 C-116 50 -116 50 -113.9375 48.8125 C-113.298125 48.544375 -112.65875 48.27625 -112 48 C-111.88269531 47.42507813 -111.76539063 46.85015625 -111.64453125 46.2578125 C-110.74618608 43.11088214 -108.96873661 41.44653984 -106.75 39.0625 C-105.93402344 38.18335938 -105.11804688 37.30421875 -104.27734375 36.3984375 C-100.0467879 31.94292929 -95.71982993 27.93319161 -91 24 C-89.7315625 22.7315625 -89.7315625 22.7315625 -88.4375 21.4375 C-80.35234204 13.35234204 -70.05678412 9.29709037 -59.59375 5.078125 C-57.08443443 4.08188095 -57.08443443 4.08188095 -55.10766602 2.99951172 C-39.15450947 -4.56590272 -16.82224551 -3.53687159 0 0 Z " fill="#FEFEFE" transform="translate(578,256)"/>
<path d="M0 0 C4.62 0 9.24 0 14 0 C14 7.26 14 14.52 14 22 C16.97 22 19.94 22 23 22 C31.45788997 23.39587326 39.19189484 26.26625161 46.875 30 C47.57117432 30.33193359 48.26734863 30.66386719 48.98461914 31.00585938 C53.69792478 33.41486911 53.69792478 33.41486911 55.0546875 36.04296875 C54.97589942 38.8624565 53.57796343 40.78662761 52.1171875 43.12890625 C51.02173383 44.96359964 50.18499684 46.77511079 49.375 48.75 C48 52 48 52 46 55 C42.45756548 53.63408831 39.07372071 52.09068516 35.6875 50.375 C34.36298828 49.70597656 34.36298828 49.70597656 33.01171875 49.0234375 C32.34785156 48.68570313 31.68398438 48.34796875 31 48 C31 47.34 31 46.68 31 46 C29.576875 45.814375 29.576875 45.814375 28.125 45.625 C23.39009236 44.90758975 18.69595036 43.93919007 14 43 C14 55.54 14 68.08 14 81 C17.3 81.33 20.6 81.66 24 82 C27.11948321 82.92142269 30.00157308 83.86141998 33 85.0625 C33.77746582 85.36978027 34.55493164 85.67706055 35.35595703 85.99365234 C44.13758506 89.63937519 52.74801587 95.25746919 57.01171875 104.09765625 C57.23472656 104.74605469 57.45773437 105.39445312 57.6875 106.0625 C57.91824219 106.71347656 58.14898437 107.36445313 58.38671875 108.03515625 C61.81959347 119.03347463 60.3161524 129.47937853 56 140 C55.34 140 54.68 140 54 140 C53.773125 140.556875 53.54625 141.11375 53.3125 141.6875 C51.62449964 144.66159588 49.53323483 146.72008865 47 149 C46.34 149 45.68 149 45 149 C44.67 149.99 44.34 150.98 44 152 C34.9794007 158.08797648 24.58600945 159.82377673 14 161 C14 167.93 14 174.86 14 182 C9.38 182 4.76 182 0 182 C0 174.74 0 167.48 0 160 C-3.650625 159.8453125 -3.650625 159.8453125 -7.375 159.6875 C-22.16585558 158.85045067 -36.26253451 153.13876465 -48 144 C-49 141 -49 141 -47.671875 138.0390625 C-46.72054687 136.34910156 -46.72054687 136.34910156 -45.75 134.625 C-44.81414062 132.94277344 -44.81414062 132.94277344 -43.859375 131.2265625 C-42.26835446 128.46567391 -40.65288052 125.72419197 -39 123 C-36.29033059 124.19225454 -34.25683001 125.56480919 -31.875 127.375 C-27.57471809 130.48836758 -22.97845371 132.23459088 -18 134 C-16.97777344 134.36351562 -15.95554688 134.72703125 -14.90234375 135.1015625 C-9.85389304 136.84068183 -5.30902513 138.11516248 0 139 C0 126.46 0 113.92 0 101 C-1.65 100.67 -3.3 100.34 -5 100 C-18.22747514 96.39902792 -32.67444339 92.31046383 -40.27734375 79.91796875 C-45.17248299 70.52836003 -45.37214342 59.25010915 -43.421875 48.9453125 C-40.11499934 39.53574811 -32.42665869 31.98778728 -23.8125 27.25 C-15.91579369 23.74035275 -8.63896541 22 0 22 C0 14.74 0 7.48 0 0 Z " fill="#FAB041" transform="translate(267,181)"/>
<path d="M0 0 C14.64705882 4.88235294 14.64705882 4.88235294 20 11 C21.45083502 15.35250507 21.85342929 19.58113755 20.31640625 23.9375 C17.59004249 29.18659869 13.74102537 31.62948732 8.5 34.25 C6 35 6 35 0 35 C0 23.45 0 11.9 0 0 Z " fill="#FEFCF8" transform="translate(281,285)"/>
<path d="M0 0 C0 11.22 0 22.44 0 34 C-13.23396226 30.21886792 -13.23396226 30.21886792 -17.4375 24.9375 C-19.84735975 20.40696366 -20.51201912 17.12019118 -20 12 C-17.32982635 6.02330291 -12.92627966 3.30604188 -7 1 C-4 0 -4 0 0 0 Z " fill="#FEFCF8" transform="translate(267,224)"/>
<path d="M0 0 C3.2645028 3.2645028 3.93236055 7.41047299 4.125 11.9375 C4.08375 12.618125 4.0425 13.29875 4 14 C4.66 14 5.32 14 6 14 C9.66705454 31.71109321 10.27480468 49.10038743 10.125 67.125 C10.11493803 69.25911033 10.10581794 71.39322531 10.09765625 73.52734375 C10.07592543 78.6850138 10.04157764 83.84245334 10 89 C9.67 89 9.34 89 9 89 C8.98018066 87.85523193 8.96036133 86.71046387 8.93994141 85.53100586 C8.86354772 81.26109792 8.77488363 76.99151583 8.68261719 72.72192383 C8.64446642 70.87823954 8.6095899 69.03448434 8.578125 67.19067383 C8.53217105 64.53180699 8.4742284 61.87342247 8.4140625 59.21484375 C8.40251129 58.39789536 8.39096008 57.58094696 8.37905884 56.73924255 C8.25417348 51.83500777 7.46598335 47.71885651 6 43 C5.65283203 40.42382812 5.65283203 40.42382812 5.5078125 38.03125 C5.4444873 37.13728516 5.38116211 36.24332031 5.31591797 35.32226562 C5.25291504 34.39091797 5.18991211 33.45957031 5.125 32.5 C4.49561917 24.33843951 3.25662141 16.89698492 0.8046875 9.09375 C-0.01812745 5.93030611 -0.14697864 3.25312718 0 0 Z " fill="#EEBA6C" transform="translate(679,366)"/>
<path d="M0 0 C1.32 0.33 2.64 0.66 4 1 C-6.35746526 7.19043862 -14.98962296 9.66551366 -27 11 C-27 17.93 -27 24.86 -27 32 C-31.62 32 -36.24 32 -41 32 C-41 25.07 -41 18.14 -41 11 C-40.67 11 -40.34 11 -40 11 C-40 17.27 -40 23.54 -40 30 C-36.37 30 -32.74 30 -29 30 C-29.01160156 28.49566406 -29.02320313 26.99132812 -29.03515625 25.44140625 C-29.04453249 23.48177207 -29.05363287 21.52213655 -29.0625 19.5625 C-29.07087891 18.56927734 -29.07925781 17.57605469 -29.08789062 16.55273438 C-29.09111328 15.60849609 -29.09433594 14.66425781 -29.09765625 13.69140625 C-29.10289307 12.81685791 -29.10812988 11.94230957 -29.11352539 11.04125977 C-29 9 -29 9 -28 8 C-25.58168921 7.59596515 -23.18063589 7.24647914 -20.75 6.9375 C-20.08097656 6.84662109 -19.41195313 6.75574219 -18.72265625 6.66210938 C-15.1250388 6.19208666 -11.62792471 5.89453707 -8 6 C-8 5.34 -8 4.68 -8 4 C-5.09399739 2.74335022 -3.20395416 2 0 2 C0 1.34 0 0.68 0 0 Z " fill="#E8BA75" transform="translate(308,331)"/>
<path d="M0 0 C0.33 0 0.66 0 1 0 C1.33 8.58 1.66 17.16 2 26 C3.32 26.33 4.64 26.66 6 27 C6.93423645 30.01031744 7.04449911 30.86650268 6 34 C5.01 34 4.02 34 3 34 C3.33 34.66 3.66 35.32 4 36 C4.20839366 37.54703346 4.367527 39.10087501 4.5 40.65625 C4.62375 42.06777344 4.62375 42.06777344 4.75 43.5078125 C4.8325 44.49523437 4.915 45.48265625 5 46.5 C5.16622075 48.42712185 5.33288503 50.35420549 5.5 52.28125 C5.58121094 53.22613281 5.66242188 54.17101562 5.74609375 55.14453125 C6.1274579 59.43341113 6.55902256 63.71688929 7 68 C6.34 68 5.68 68 5 68 C0.46099975 45.23245044 -0.20852294 23.15567048 0 0 Z " fill="#F0B45D" transform="translate(426,428)"/>
<path d="M0 0 C3.375 0.875 3.375 0.875 5.375 2.875 C5.81162786 6.8046507 5.97251439 9.01192366 3.6875 12.3125 C1.375 13.875 1.375 13.875 -1.125 14.4375 C-3.625 13.875 -3.625 13.875 -5.9375 11.6875 C-7.77456543 8.62572428 -8.338937 7.3554429 -7.625 3.875 C-5.27446179 0.30218192 -4.32956596 -0.14929538 0 0 Z " fill="#4E86CA" transform="translate(895.625,356.125)"/>
<path d="M0 0 C1.9375 1.125 1.9375 1.125 3 3 C3.42030443 6.29238472 3.295454 8.33957342 1.9375 11.375 C0 13 0 13 -3.5 13.5 C-7 13 -7 13 -8.9375 11.4375 C-10.38842058 8.1089175 -10.39866145 5.58795309 -10 2 C-6.30513897 -0.46324069 -4.36706908 -0.38991688 0 0 Z " fill="#5088CB" transform="translate(930,404)"/>
<path d="M0 0 C2.3125 1.625 2.3125 1.625 4 4 C4.45339217 7.17374516 4.58558918 9.05655076 2.875 11.8125 C0.25518099 13.4717187 -1.92271059 13.80766941 -5 14 C-8 12 -8 12 -8.9375 8.125 C-9.21781229 4.97863755 -9.16334243 4.25129604 -7.375 1.5 C-4.53788623 -0.29186133 -3.28967708 -0.65793542 0 0 Z " fill="#4B86CB" transform="translate(786,293)"/>
<path d="M0 0 C2.64327625 1.64065423 2.98513249 2.95341515 3.9375 5.9375 C4 9 4 9 2.4375 11.375 C-0.69093913 13.46062609 -2.30611466 13.61564756 -6 13 C-8.4375 11.375 -8.4375 11.375 -10 9 C-9.93498241 5.81413804 -9.51914046 3.81969546 -7.8125 1.125 C-5.09975061 -0.55877549 -3.12124489 -0.39015561 0 0 Z " fill="#4E88CD" transform="translate(977,372)"/>
<path d="M0 0 C1.9375 1.0625 1.9375 1.0625 3 3 C3.4375 6.5 3.4375 6.5 3 10 C1.4375 12 1.4375 12 -1 13 C-4.625 12.875 -4.625 12.875 -8 12 C-10.31282587 8.53076119 -10.42478586 7.07794425 -10 3 C-7.72054654 -1.02256493 -4.21158603 -0.45124136 0 0 Z " fill="#4080CB" transform="translate(819,341)"/>
<path d="M0 0 C2 1.625 2 1.625 3 4 C2.87230149 7.12861361 2.44822217 9.22806182 0.875 11.9375 C-2.26671287 13.71780396 -4.62772888 12.90328691 -8 12 C-10 10.3125 -10 10.3125 -11 8 C-10.875 4.875 -10.875 4.875 -10 2 C-6.29584707 -0.46943529 -4.37855495 -0.46913089 0 0 Z " fill="#4E87CC" transform="translate(946,325)"/>
<path d="M0 0 C1.875 1.0625 1.875 1.0625 3 3 C3.36528977 6.4093712 3.6140629 8.88023824 1.9375 11.9375 C-1.11976176 13.6140629 -3.5906288 13.36528977 -7 13 C-8.9375 11.875 -8.9375 11.875 -10 10 C-10.54068562 6.36968224 -10.46379841 4.67785921 -8.375 1.625 C-5.32214079 -0.46379841 -3.63031776 -0.54068562 0 0 Z " fill="#4C85CA" transform="translate(866,309)"/>
<path d="M0 0 C2.3125 1.625 2.3125 1.625 4 4 C4.45319325 7.17235276 4.52990283 9.06487736 2.9375 11.875 C-0.1069286 13.64273274 -2.5631012 13.36823916 -6 13 C-7.9375 11.9375 -7.9375 11.9375 -9 10 C-9.4375 6.5 -9.4375 6.5 -9 3 C-6.35893733 -0.03233122 -3.92985113 -0.68772395 0 0 Z " fill="#4E87CC" transform="translate(913,277)"/>
<path d="M0 0 C2.3125 1.625 2.3125 1.625 4 4 C4.44912849 7.14389944 4.504106 9.05480125 3 11.875 C-0.37806895 13.77516379 -3.16618269 13.36512546 -7 13 C-9.46943529 9.29584707 -9.46913089 7.37855495 -9 3 C-6.35893733 -0.03233122 -3.92985113 -0.68772395 0 0 Z " fill="#3D7CCB" transform="translate(882,435)"/>
<path d="M0 0 C4.62 0 9.24 0 14 0 C14 7.26 14 14.52 14 22 C13.34 22 12.68 22 12 22 C12 15.73 12 9.46 12 3 C8.7 3 5.4 3 2 3 C2.01160156 4.43214844 2.02320313 5.86429688 2.03515625 7.33984375 C2.04453255 9.20572787 2.05363292 11.07161339 2.0625 12.9375 C2.07087891 13.88302734 2.07925781 14.82855469 2.08789062 15.80273438 C2.09111328 16.70185547 2.09433594 17.60097656 2.09765625 18.52734375 C2.10289307 19.35999756 2.10812988 20.19265137 2.11352539 21.05053711 C2 23 2 23 1 24 C-1.01964199 24.07244053 -3.04167124 24.08377188 -5.0625 24.0625 C-6.16722656 24.05347656 -7.27195312 24.04445312 -8.41015625 24.03515625 C-9.69212891 24.01775391 -9.69212891 24.01775391 -11 24 C-6.97066275 21.42122416 -5.48465565 22 0 22 C0 14.74 0 7.48 0 0 Z " fill="#EBBB73" transform="translate(267,181)"/>
<path d="M0 0 C2.375 2.125 2.375 2.125 4 5 C3.9375 8.1875 3.9375 8.1875 3 11 C-0.46923881 13.31282587 -1.92205575 13.42478586 -6 13 C-7.875 11.9375 -7.875 11.9375 -9 10 C-9.4375 6.5 -9.4375 6.5 -9 3 C-6.3773336 -0.01120957 -3.90597484 -0.78119497 0 0 Z " fill="#3F7EC9" transform="translate(850,388)"/>
<path d="M0 0 C1.8871875 0.37125 1.8871875 0.37125 3.8125 0.75 C5.18728516 1.01683594 5.18728516 1.01683594 6.58984375 1.2890625 C9.14312526 1.82136174 11.66064573 2.3996945 14.19140625 3.0234375 C31.47006916 7.16325131 50.46595677 8.17984296 67.66796875 2.8671875 C70.94060278 2.0154586 71.93260337 2.05123445 75 3 C72.31425618 3.81871381 69.6266428 4.63008988 66.9375 5.4375 C65.80924805 5.78264648 65.80924805 5.78264648 64.65820312 6.13476562 C45.2768538 11.92399984 19.4701321 10.67323694 1 2 C0.67 1.34 0.34 0.68 0 0 Z " fill="#F2BD6F" transform="translate(518,614)"/>
<path d="M0 0 C1.875 1.0625 1.875 1.0625 3 3 C3.63316583 8.90954774 3.63316583 8.90954774 1.875 11.9375 C-0.9699825 13.54965675 -2.7911929 13.52388687 -6 13 C-8.4375 10.8125 -8.4375 10.8125 -10 8 C-9.93107581 5.10518392 -9.38861317 3.59314642 -7.8125 1.1875 C-5.11075568 -0.58260835 -3.15326426 -0.39415803 0 0 Z " fill="#4681C9" transform="translate(803,420)"/>
<path d="M0 0 C0.33 0 0.66 0 1 0 C3.396933 12.91559228 3.30562233 25.80743765 3.26074219 38.90380859 C3.25008314 42.59619808 3.26065261 46.2880946 3.2734375 49.98046875 C3.28261353 66.08359103 2.8400825 82.11149354 0 98 C-0.33 98 -0.66 98 -1 98 C-1 91.4 -1 84.8 -1 78 C-0.34 78 0.32 78 1 78 C1.02322988 70.03710264 1.04096918 62.07421958 1.05181217 54.11129665 C1.05701778 50.41329687 1.06407301 46.71532037 1.07543945 43.01733398 C1.08635117 39.44469539 1.09229431 35.87207911 1.09487724 32.29942513 C1.09671661 30.94036572 1.10030832 29.58130745 1.10573006 28.22225761 C1.1130505 26.31021199 1.11340899 24.39814362 1.11352539 22.48608398 C1.115746 21.40020493 1.11796661 20.31432587 1.12025452 19.19554138 C0.99023403 15.74048731 0.52276623 12.41562022 0 9 C-0.06056151 7.35514934 -0.08781955 5.70827043 -0.0625 4.0625 C-0.05347656 3.29035156 -0.04445313 2.51820313 -0.03515625 1.72265625 C-0.02355469 1.15417969 -0.01195312 0.58570313 0 0 Z " fill="#E8C187" transform="translate(778,392)"/>
<path d="M0 0 C2.51594502 0.08234002 3.86661565 0.21158988 6.125 1.375 C7.61488061 4.4540866 6.73732518 7.06106958 6.0625 10.3125 C5.4025 10.3125 4.7425 10.3125 4.0625 10.3125 C4.0625 10.9725 4.0625 11.6325 4.0625 12.3125 C-2.28257042 12.67165493 -2.28257042 12.67165493 -4.875 11.25 C-6.52912584 8.23365289 -6.24325763 5.67583392 -5.9375 2.3125 C-3.9375 0.3125 -3.9375 0.3125 0 0 Z " fill="#3775BD" transform="translate(735.9375,325.6875)"/>
<path d="M0 0 C3.42201828 -0.37331109 5.90185629 -0.63763183 8.9375 1.125 C10.51108304 3.90191125 10.38420899 5.86229327 10 9 C8.875 11.375 8.875 11.375 7 13 C4 13.5 4 13.5 1 13 C-1.611137 10.7370146 -1.96165814 9.37575018 -2.3125 5.9375 C-2 3 -2 3 0 0 Z " fill="#3F77BA" transform="translate(764,373)"/>
<path d="M0 0 C0.66 0 1.32 0 2 0 C2 12.54 2 25.08 2 38 C5.3 38.33 8.6 38.66 12 39 C16.125 40.5625 16.125 40.5625 19 42 C14.9585339 43.60844243 11.84853569 42.33790192 7.8125 41.125 C6.56082031 40.75632812 5.30914062 40.38765625 4.01953125 40.0078125 C1 39 1 39 0 38 C-0.08861992 35.1883662 -0.11522355 32.40141745 -0.09765625 29.58984375 C-0.0962413 28.74780899 -0.09482635 27.90577423 -0.09336853 27.03822327 C-0.08775263 24.33794665 -0.07519748 21.63775172 -0.0625 18.9375 C-0.05748705 17.11132932 -0.05292379 15.28515734 -0.04882812 13.45898438 C-0.03777804 8.97262458 -0.02050279 4.48632616 0 0 Z " fill="#EBBE7B" transform="translate(279,224)"/>
<path d="M0 0 C1.15000933 3.45002798 0.53740612 4.96579314 -0.48754883 8.34667969 C-5.76017852 25.97973637 -6.43395959 44.74945271 -8 63 C-8.33 63 -8.66 63 -9 63 C-9.2342088 37.59375015 -9.2342088 37.59375015 -8 29 C-7.67 28.67 -7.34 28.34 -7 28 C-6.76712992 26.31816052 -6.58735834 24.6287584 -6.4375 22.9375 C-6.31181641 21.55884766 -6.31181641 21.55884766 -6.18359375 20.15234375 C-6.12300781 19.44207031 -6.06242187 18.73179687 -6 18 C-5.34 18 -4.68 18 -4 18 C-3.7834375 16.515 -3.7834375 16.515 -3.5625 15 C-3.4696875 14.36578125 -3.376875 13.7315625 -3.28125 13.078125 C-3.09132988 11.67482632 -2.92521042 10.26813056 -2.78125 8.859375 C-2.40086753 5.19140122 -2.0819568 3.12293519 0 0 Z " fill="#EDBE78" transform="translate(437,358)"/>
<path d="M0 0 C2.31 0.33 4.62 0.66 7 1 C5.68 1.33 4.36 1.66 3 2 C2.67 13.22 2.34 24.44 2 36 C4.64 35.34 7.28 34.68 10 34 C11.66394675 33.65334443 13.32943851 33.31323028 15 33 C12.45528982 36.11020134 9.84103748 37.00133026 6 38 C3.1875 38.1875 3.1875 38.1875 1 38 C0 37 0 37 -0.11352539 33.48999023 C-0.11336626 31.92951578 -0.10767142 30.36903607 -0.09765625 28.80859375 C-0.0962413 27.98875504 -0.09482635 27.16891632 -0.09336853 26.32423401 C-0.08775289 23.69528618 -0.07519779 21.06642227 -0.0625 18.4375 C-0.05748701 16.65950643 -0.05292376 14.88151154 -0.04882812 13.10351562 C-0.03777839 8.73564455 -0.02050331 4.36783652 0 0 Z " fill="#EEBE79" transform="translate(279,284)"/>
<path d="M0 0 C3.3 0 6.6 0 10 0 C-1.13648603 7.42432402 -18.73155191 5.35716265 -31.5 5.1875 C-33.49868771 5.17241005 -35.49738658 5.15872935 -37.49609375 5.14648438 C-42.33101126 5.11385682 -47.1653778 5.06231831 -52 5 C-52 4.67 -52 4.34 -52 4 C-51.01080566 3.97494385 -50.02161133 3.9498877 -49.00244141 3.92407227 C-45.33840596 3.83002213 -41.67456115 3.72979571 -38.01074219 3.62768555 C-36.42387343 3.58432759 -34.83695776 3.54265313 -33.25 3.50268555 C-30.97121021 3.44500368 -28.69265678 3.38130362 -26.4140625 3.31640625 C-25.70255035 3.29969376 -24.99103821 3.28298126 -24.25796509 3.26576233 C-20.50339183 3.20278063 -20.50339183 3.20278063 -17 2 C-14.11629667 1.92805131 -11.25760336 1.90708292 -8.375 1.9375 C-7.57320312 1.94201172 -6.77140625 1.94652344 -5.9453125 1.95117188 C-3.96350994 1.96296832 -1.98174567 1.98090395 0 2 C0 1.34 0 0.68 0 0 Z " fill="#EFBA6C" transform="translate(592,697)"/>
<path d="M0 0 C-0.33 11.88 -0.66 23.76 -1 36 C-10 34.875 -10 34.875 -15 32 C-14.67 31.34 -14.34 30.68 -14 30 C-10.04 31.65 -6.08 33.3 -2 35 C-2 23.78 -2 12.56 -2 1 C-5.96 1.99 -9.92 2.98 -14 4 C-14 3.34 -14 2.68 -14 2 C-13.01 2 -12.02 2 -11 2 C-11 1.34 -11 0.68 -11 0 C-6.68380697 -0.90338924 -4.49202386 -0.89840477 0 0 Z " fill="#DEB373" transform="translate(269,223)"/>
<path d="M0 0 C1.58206057 0.00667536 3.16410534 0.0186375 4.74609375 0.03515625 C5.55240234 0.03966797 6.35871094 0.04417969 7.18945312 0.04882812 C9.18753131 0.06065107 11.18557158 0.07858711 13.18359375 0.09765625 C13.18359375 0.42765625 13.18359375 0.75765625 13.18359375 1.09765625 C8.47974557 2.92774718 4.17481693 3.39896464 -0.81640625 3.53515625 C-7.74056844 3.8174218 -14.01622734 4.86118064 -20.765625 6.46484375 C-24.57502656 7.25501411 -27.94597875 7.3298819 -31.81640625 7.09765625 C-28.70947342 5.35060507 -25.93993712 4.62765593 -22.4296875 4.0625 C-20.89924805 3.80823242 -20.89924805 3.80823242 -19.33789062 3.54882812 C-18.27892578 3.37931641 -17.21996094 3.20980469 -16.12890625 3.03515625 C-14.02025459 2.69365878 -11.91214471 2.34879286 -9.8046875 2 C-8.87180908 1.85038818 -7.93893066 1.70077637 -6.9777832 1.54663086 C-3.45251637 0.8143406 -4.30647575 0.11019641 0 0 Z " fill="#EEBD74" transform="translate(529.81640625,173.90234375)"/>
<path d="M0 0 C2.75162887 4.12744331 2.99106841 8.08992447 3.6875 12.9375 C3.82994141 13.84435547 3.97238281 14.75121094 4.11914062 15.68554688 C4.24869141 16.56146484 4.37824219 17.43738281 4.51171875 18.33984375 C4.68900513 19.53661743 4.68900513 19.53661743 4.86987305 20.75756836 C5.00424769 23.07319889 4.68422643 24.79618003 4 27 C4 26.34 4 25.68 4 25 C3.4225 25.680625 2.845 26.36125 2.25 27.0625 C1.5075 27.701875 0.765 28.34125 0 29 C-2.25 28.75 -2.25 28.75 -4 28 C-3.01 27.67 -2.02 27.34 -1 27 C1.30163882 23.54754176 1.34490322 22.05261287 1 18 C-1.35953094 15.64046906 -2.77895617 15.50858587 -6 15 C-6 14.67 -6 14.34 -6 14 C-3.69 14 -1.38 14 1 14 C0.67 9.38 0.34 4.76 0 0 Z " fill="#E1B87E" transform="translate(772,358)"/>
<path d="M0 0 C0.33 0 0.66 0 1 0 C0.97905273 0.71019287 0.95810547 1.42038574 0.93652344 2.15209961 C0.85265314 5.41375194 0.80111643 8.67517644 0.75 11.9375 C0.69972656 13.61295898 0.69972656 13.61295898 0.6484375 15.32226562 C0.57266332 21.78201446 1.05883684 26.50709664 4.23144531 32.19750977 C5 34 5 34 4 37 C3.18162558 35.58671871 2.37053781 34.16921654 1.5625 32.75 C1.11003906 31.96109375 0.65757812 31.1721875 0.19140625 30.359375 C-2.32430665 25.37743864 -2.18308404 20.59196345 -2.1875 15.125 C-2.19974609 14.33480469 -2.21199219 13.54460937 -2.22460938 12.73046875 C-2.2362095 8.08268452 -1.77874711 4.37304627 0 0 Z " fill="#EBBA6F" transform="translate(225,227)"/>
<path d="M0 0 C0.99 0.33 1.98 0.66 3 1 C-0.57520026 3.52880018 -3.91387222 5.49887723 -8 7.140625 C-11.34637977 8.57852256 -14.54400465 10.3158658 -17.765625 12.01171875 C-20 13 -20 13 -23 13 C-23 13.66 -23 14.32 -23 15 C-26.63 15.66 -30.26 16.32 -34 17 C-33.01 16.01 -32.02 15.02 -31 14 C-29.68 14 -28.36 14 -27 14 C-27 13.34 -27 12.68 -27 12 C-25.86111328 11.69255859 -25.86111328 11.69255859 -24.69921875 11.37890625 C-23.70535156 11.10949219 -22.71148438 10.84007812 -21.6875 10.5625 C-20.70136719 10.29566406 -19.71523438 10.02882813 -18.69921875 9.75390625 C-16.78482474 9.21920575 -14.88566385 8.62855462 -13 8 C-13 7.34 -13 6.68 -13 6 C-11.68 6 -10.36 6 -9 6 C-9 5.34 -9 4.68 -9 4 C-8.43410156 3.79503906 -7.86820313 3.59007812 -7.28515625 3.37890625 C-6.55167969 3.10949219 -5.81820312 2.84007812 -5.0625 2.5625 C-4.33160156 2.29566406 -3.60070312 2.02882813 -2.84765625 1.75390625 C-1.01694322 1.14613052 -1.01694322 1.14613052 0 0 Z " fill="#EFBB70" transform="translate(661,673)"/>
<path d="M0 0 C2.86299506 2.86299506 2.99421225 4.65852284 3.0625 8.6875 C3.041875 9.780625 3.02125 10.87375 3 12 C3.66 12 4.32 12 5 12 C5.144375 13.134375 5.28875 14.26875 5.4375 15.4375 C5.61171478 18.80777201 5.61171478 18.80777201 7 20 C7.07179964 21.51928038 7.08392007 23.04167482 7.0625 24.5625 C7.05347656 25.38878906 7.04445313 26.21507812 7.03515625 27.06640625 C7.02355469 27.70449219 7.01195312 28.34257813 7 29 C7.66 29 8.32 29 9 29 C9 31.64 9 34.28 9 37 C6.7600404 33.6400606 5.97418763 30.48789117 5.0625 26.625 C4.80581543 25.56285278 4.80581543 25.56285278 4.54394531 24.47924805 C4.19396905 23.02541275 3.84680568 21.57089746 3.50244141 20.11572266 C3.03601503 18.15165512 2.55569296 16.19090172 2.07421875 14.23046875 C1.80222656 13.10253906 1.53023438 11.97460938 1.25 10.8125 C0.88648438 9.30623047 0.88648438 9.30623047 0.515625 7.76953125 C0.01967806 5.10569506 -0.09878135 2.70166992 0 0 Z " fill="#EFBC73" transform="translate(340,501)"/>
<path d="M0 0 C1.47968324 0.14049518 2.95874516 0.28754826 4.4375 0.4375 C5.67306641 0.55931641 5.67306641 0.55931641 6.93359375 0.68359375 C9 1 9 1 10 2 C12.18292774 2.23481693 14.37203174 2.41363323 16.5625 2.5625 C18.35880859 2.68818359 18.35880859 2.68818359 20.19140625 2.81640625 C21.11824219 2.87699219 22.04507813 2.93757812 23 3 C23.33 3.99 23.66 4.98 24 6 C28.62 6 33.24 6 38 6 C38 6.33 38 6.66 38 7 C24.57039996 7.50784202 12.69411988 5.59614685 0 1 C0 0.67 0 0.34 0 0 Z " fill="#EDBC77" transform="translate(500,694)"/>
<path d="M0 0 C0.33 1.32 0.66 2.64 1 4 C0.01 4.33 -0.98 4.66 -2 5 C-2 5.66 -2 6.32 -2 7 C-2.66 7 -3.32 7 -4 7 C-4.0825 7.763125 -4.165 8.52625 -4.25 9.3125 C-5.17268001 12.61877005 -6.26042404 13.06618167 -9 15 C-9.495 15.845625 -9.99 16.69125 -10.5 17.5625 C-12.14619139 20.23756101 -13.1962099 20.78502429 -16 22 C-16.33 22.66 -16.66 23.32 -17 24 C-17.66 23.67 -18.32 23.34 -19 23 C-18.57589844 22.52691406 -18.15179687 22.05382812 -17.71484375 21.56640625 C-13.74385216 17.08922233 -10.03507377 12.5028917 -6.48046875 7.6875 C-5.99191406 7.130625 -5.50335937 6.57375 -5 6 C-4.34 6 -3.68 6 -3 6 C-2.690625 5.195625 -2.38125 4.39125 -2.0625 3.5625 C-1 1 -1 1 0 0 Z " fill="#F1BC6B" transform="translate(653,567)"/>
<path d="M0 0 C0.33 0 0.66 0 1 0 C1.41277905 28.35792096 1.41277905 28.35792096 -1 39 C-1.33 39 -1.66 39 -2 39 C-2 32.4 -2 25.8 -2 19 C-1.34 19 -0.68 19 0 19 C0 12.73 0 6.46 0 0 Z " fill="#EDB86D" transform="translate(779,451)"/>
<path d="M0 0 C4.15556035 1.38518678 4.53466174 3.40552253 6.5 7.25 C8.56207321 11.24752789 10.67370882 15.15116431 13 19 C16.35229842 25.82432178 16.35229842 25.82432178 15 30 C10 20 5 10 0 0 Z " fill="#F0BB71" transform="translate(656,314)"/>
<path d="M0 0 C0.33 0.66 0.66 1.32 1 2 C-1.35258021 7.60138146 -4.83540134 12.6102879 -9 17 C-9.66 17 -10.32 17 -11 17 C-11.309375 17.78375 -11.61875 18.5675 -11.9375 19.375 C-13 22 -13 22 -14 24 C-14.66 24 -15.32 24 -16 24 C-15.34 22.02 -14.68 20.04 -14 18 C-13.34 18 -12.68 18 -12 18 C-11.690625 17.21625 -11.38125 16.4325 -11.0625 15.625 C-10 13 -10 13 -9 11 C-8.34 11 -7.68 11 -7 11 C-6.896875 10.401875 -6.79375 9.80375 -6.6875 9.1875 C-5.8899052 6.64969837 -4.93316334 5.78445847 -3 4 C-1.98199424 2.68036291 -0.97751635 1.34990354 0 0 Z " fill="#F1BE72" transform="translate(396,249)"/>
<path d="M0 0 C2.38857981 2.14171542 3.56944475 3.9158281 4.625 6.9375 C4.86476563 7.60652344 5.10453125 8.27554687 5.3515625 8.96484375 C6.77296559 13.42599442 7.16249271 17.2786233 7.1875 22 C7.20167969 23.216875 7.21585937 24.43375 7.23046875 25.6875 C7.00980287 28.85910445 6.48669168 30.29545116 5 33 C4.98018066 32.42556152 4.96036133 31.85112305 4.93994141 31.25927734 C4.84407976 28.63076167 4.73465126 26.00297509 4.625 23.375 C4.5940625 22.47136719 4.563125 21.56773437 4.53125 20.63671875 C4.31551518 15.71077359 3.76173055 11.65497909 2 7 C2 6.01 2 5.02 2 4 C1.34 4 0.68 4 0 4 C0 2.68 0 1.36 0 0 Z " fill="#EBBB72" transform="translate(320,280)"/>
<path d="M0 0 C4.00764763 3.62203205 6.38177933 7.19199159 8.625 12.125 C10.3732261 15.91282321 11.94617832 19.09290849 15 22 C15.1875 24.6875 15.1875 24.6875 15 27 C9.7930457 20.82879491 6.07988191 14.4197155 3 7 C2.443125 6.071875 1.88625 5.14375 1.3125 4.1875 C0 2 0 2 0 0 Z " fill="#F0BE79" transform="translate(362,573)"/>
<path d="M0 0 C1.32 0.33 2.64 0.66 4 1 C4.93423645 4.01031744 5.04449911 4.86650268 4 8 C3.01 8 2.02 8 1 8 C1.33 8.66 1.66 9.32 2 10 C2.2322646 12.71262116 2.41936235 15.40773126 2.5625 18.125 C2.62727539 19.25615234 2.62727539 19.25615234 2.69335938 20.41015625 C2.7994832 22.27321888 2.90025001 24.13658524 3 26 C2.67 26 2.34 26 2 26 C0.55203128 17.26047454 -0.29211698 8.86088167 0 0 Z " fill="#E5C79D" transform="translate(428,454)"/>
<path d="M0 0 C2.70729502 1.27959677 5.05288182 2.69363796 7.4375 4.5 C10.17775115 6.50203694 12.75615092 7.91871697 16 9 C13 10 13 10 10.87890625 9.07421875 C10.11449219 8.61660156 9.35007813 8.15898437 8.5625 7.6875 C5.74494853 6.02366673 2.94494426 4.42886817 0 3 C-1.46652017 5.88019276 -2.82047874 8.79308515 -4.125 11.75 C-4.47820312 12.54921875 -4.83140625 13.3484375 -5.1953125 14.171875 C-5.46085938 14.77515625 -5.72640625 15.3784375 -6 16 C-6.66 16 -7.32 16 -8 16 C-6.42986223 10.03347646 -3.24970218 5.17090975 0 0 Z " fill="#EDBD73" transform="translate(228,304)"/>
<path d="M0 0 C3.0625 0.1875 3.0625 0.1875 5.0625 2.1875 C4.52678571 5.72321429 4.52678571 5.72321429 3.0625 7.1875 C0.72305264 6.90019945 -1.6114143 6.56813221 -3.9375 6.1875 C-3.980221 4.52138095 -3.97813832 2.85367115 -3.9375 1.1875 C-2.9375 0.1875 -2.9375 0.1875 0 0 Z " fill="#D5D5D5" transform="translate(782.9375,154.8125)"/>
<path d="M0 0 C2.125 0.9375 2.125 0.9375 4 2 C4.04254356 3.99954746 4.04080783 6.00041636 4 8 C3 9 3 9 0.5 9.125 C-2 9 -2 9 -3 8 C-2.6875 4.5 -2.6875 4.5 -2 1 C-1.34 0.67 -0.68 0.34 0 0 Z " fill="#D6D6D7" transform="translate(914,415)"/>
<path d="M0 0 C1.65 0.33 3.3 0.66 5 1 C5.625 3.3125 5.625 3.3125 6 6 C5.01 7.485 5.01 7.485 4 9 C2.35 8.67 0.7 8.34 -1 8 C-1.125 2.25 -1.125 2.25 0 0 Z " fill="#E1E1E1" transform="translate(918,387)"/>
<path d="M0 0 C0 0.66 0 1.32 0 2 C-1.7578125 2.94401042 -3.515625 3.88802083 -5.2734375 4.83203125 C-7.30502365 6.04763493 -7.30502365 6.04763493 -9 9 C-12.125 9.6875 -12.125 9.6875 -15 10 C-15.33 11.32 -15.66 12.64 -16 14 C-18.31 14.66 -20.62 15.32 -23 16 C-17.35475578 10.19794344 -17.35475578 10.19794344 -14 8 C-13.34 8 -12.68 8 -12 8 C-12 7.34 -12 6.68 -12 6 C-10.27473958 5.0234375 -8.54947917 4.046875 -6.82421875 3.0703125 C-1.59124088 0 -1.59124088 0 0 0 Z " fill="#F0BC6E" transform="translate(452,202)"/>
<path d="M0 0 C0.66 1.32 1.32 2.64 2 4 C1.01 5.485 1.01 5.485 0 7 C-2.31 6.67 -4.62 6.34 -7 6 C-7 4.35 -7 2.7 -7 1 C-4.53721199 -0.231394 -2.7204945 -0.07159196 0 0 Z " fill="#D7D7D7" transform="translate(542,719)"/>
<path d="M0 0 C1.67542976 0.28604898 3.34385343 0.61781233 5 1 C5.38133299 2.9914056 5.71325582 4.99279077 6 7 C5.67 7.33 5.34 7.66 5 8 C2.66055264 7.71269945 0.3260857 7.38063221 -2 7 C-1.125 1.125 -1.125 1.125 0 0 Z " fill="#D8D8D8" transform="translate(508,717)"/>
<path d="M0 0 C1.65 0 3.3 0 5 0 C6.60031344 3.20062687 5.03173691 5.72271806 4 9 C2.125 8.6875 2.125 8.6875 0 8 C-2 5 -2 5 -2 2 C-1.34 2 -0.68 2 0 2 C0 1.34 0 0.68 0 0 Z " fill="#DCDCDC" transform="translate(438,675)"/>
<path d="M0 0 C3.0625 0.1875 3.0625 0.1875 5.0625 2.1875 C5.0625 3.1775 5.0625 4.1675 5.0625 5.1875 C2.0625 7.1875 2.0625 7.1875 -1.125 6.8125 C-2.053125 6.60625 -2.98125 6.4 -3.9375 6.1875 C-3.980221 4.52138095 -3.97813832 2.85367115 -3.9375 1.1875 C-2.9375 0.1875 -2.9375 0.1875 0 0 Z " fill="#D6D6D5" transform="translate(746.9375,620.8125)"/>
<path d="M0 0 C2.5 0.125 2.5 0.125 3.5 1.125 C3.625 4.125 3.625 4.125 3.5 7.125 C2.5 8.125 2.5 8.125 0 8.25 C-2.5 8.125 -2.5 8.125 -3.5 7.125 C-3.625 4.125 -3.625 4.125 -3.5 1.125 C-2.5 0.125 -2.5 0.125 0 0 Z " fill="#D9D9D9" transform="translate(906.5,473.875)"/>
<path d="M0 0 C1.65 0.33 3.3 0.66 5 1 C5.33 2.65 5.66 4.3 6 6 C5.34 6 4.68 6 4 6 C3.67 6.99 3.34 7.98 3 9 C1.68 8.67 0.36 8.34 -1 8 C-1.93065133 5.39417629 -2.14917407 4.35801776 -1.0625 1.75 C-0.711875 1.1725 -0.36125 0.595 0 0 Z " fill="#D9D9D9" transform="translate(459,373)"/>
<path d="M0 0 C1.65 0 3.3 0 5 0 C5 0.99 5 1.98 5 3 C5.99 3.33 6.98 3.66 8 4 C7.67 4.99 7.34 5.98 7 7 C5.02 7.33 3.04 7.66 1 8 C-1 5 -1 5 -0.625 2.3125 C-0.41875 1.549375 -0.2125 0.78625 0 0 Z " fill="#D4D4D4" transform="translate(904,333)"/>
<path d="M0 0 C4.70588235 0.70588235 4.70588235 0.70588235 6 2 C6.1875 4.4375 6.1875 4.4375 6 7 C5.34 7.66 4.68 8.32 4 9 C1.875 8.625 1.875 8.625 0 8 C-0.38063221 5.6739143 -0.71269945 3.33944736 -1 1 C-0.67 0.67 -0.34 0.34 0 0 Z " fill="#D4D4D4" transform="translate(857,261)"/>
<path d="M0 0 C-0.3125 2.375 -0.3125 2.375 -1 5 C-4 7 -4 7 -6.1875 6.625 C-6.785625 6.41875 -7.38375 6.2125 -8 6 C-9.125 2.25 -9.125 2.25 -8 0 C-2.55072464 -1.27536232 -2.55072464 -1.27536232 0 0 Z " fill="#D4D5D5" transform="translate(675,179)"/>
<path d="M0 0 C0.38133299 1.9914056 0.71325582 3.99279077 1 6 C0 7 0 7 -2.4375 7.1875 C-5 7 -5 7 -7 5 C-7.125 2.375 -7.125 2.375 -7 0 C-4.3333581 -1.33332095 -2.83319697 -0.67102033 0 0 Z " fill="#D4D4D4" transform="translate(814,163)"/>
<path d="M0 0 C1.3921875 0.3403125 1.3921875 0.3403125 2.8125 0.6875 C2.855221 2.35361905 2.85313832 4.02132885 2.8125 5.6875 C1.8125 6.6875 1.8125 6.6875 -1.25 6.75 C-2.219375 6.729375 -3.18875 6.70875 -4.1875 6.6875 C-4.8475 5.3675 -5.5075 4.0475 -6.1875 2.6875 C-4.14987265 -0.14253799 -3.59070275 -0.35202968 0 0 Z " fill="#D6D6D6" transform="translate(755.1875,154.3125)"/>
<path d="M0 0 C1.875 0.6875 1.875 0.6875 2.875 1.6875 C2.91580783 3.68708364 2.91754356 5.68795254 2.875 7.6875 C0.565 7.3575 -1.745 7.0275 -4.125 6.6875 C-4.455 5.0375 -4.785 3.3875 -5.125 1.6875 C-2.125 -0.3125 -2.125 -0.3125 0 0 Z " fill="#CFCFCF" transform="translate(482.125,711.3125)"/>
<path d="M0 0 C1.125 4.75 1.125 4.75 0 7 C-2.31 7 -4.62 7 -7 7 C-7 5.02 -7 3.04 -7 1 C-4.53721199 -0.231394 -2.7204945 -0.07159196 0 0 Z " fill="#D8D8D7" transform="translate(779,616)"/>
<path d="M0 0 C2.125 0.375 2.125 0.375 4 1 C5.125 4.75 5.125 4.75 4 7 C3.34 7 2.68 7 2 7 C2 7.66 2 8.32 2 9 C-0.475 8.01 -0.475 8.01 -3 7 C-2.25 2.25 -2.25 2.25 0 0 Z " fill="#D3D3D3" transform="translate(510,302)"/>
<path d="M0 0 C0.94875 0.04125 1.8975 0.0825 2.875 0.125 C3.205 1.115 3.535 2.105 3.875 3.125 C2.75 5.3125 2.75 5.3125 0.875 7.125 C-1.8125 7.375 -1.8125 7.375 -4.125 7.125 C-4.75 4.75 -4.75 4.75 -5.125 2.125 C-3.125 0.125 -3.125 0.125 0 0 Z " fill="#D8D8D8" transform="translate(552.125,260.875)"/>
<path d="M0 0 C2.625 0.375 2.625 0.375 5 1 C5.6875 2.8125 5.6875 2.8125 6 5 C4.875 6.8125 4.875 6.8125 3 8 C0.3125 7.6875 0.3125 7.6875 -2 7 C-2.125 4.625 -2.125 4.625 -2 2 C-1.34 1.34 -0.68 0.68 0 0 Z " fill="#D2D2D2" transform="translate(696,167)"/>
<path d="M0 0 C0.33 0 0.66 0 1 0 C1.12190678 8.39802254 0.84327749 16.64251778 0 25 C-0.99 25.33 -1.98 25.66 -3 26 C-2.50610812 17.21392344 -1.63177319 8.64998215 0 0 Z " fill="#EABE7F" transform="translate(687,458)"/>
<path d="M0 0 C1.1446875 0.3403125 1.1446875 0.3403125 2.3125 0.6875 C1.9825 2.6675 1.6525 4.6475 1.3125 6.6875 C-0.6675 7.0175 -2.6475 7.3475 -4.6875 7.6875 C-5.375 5.375 -5.375 5.375 -5.6875 2.6875 C-4.0011022 -0.12316299 -3.27764429 -0.38112143 0 0 Z " fill="#D3D3D3" transform="translate(494.6875,325.3125)"/>
<path d="M0 0 C2.46800047 1.15173355 4.04783565 2.04783565 6 4 C5.625 6.125 5.625 6.125 5 8 C3.00045254 8.04254356 0.99958364 8.04080783 -1 8 C-2 7 -2 7 -2.1875 4.5625 C-2 2 -2 2 0 0 Z " fill="#D0D0D0" transform="translate(454,699)"/>
<path d="M0 0 C1.2065625 0.0309375 1.2065625 0.0309375 2.4375 0.0625 C3.125 1.8125 3.125 1.8125 3.4375 4.0625 C2 6.3125 2 6.3125 0.4375 8.0625 C-1.2125 7.7325 -2.8625 7.4025 -4.5625 7.0625 C-3.5234375 0.0859375 -3.5234375 0.0859375 0 0 Z " fill="#D1D1D1" transform="translate(871.5625,551.9375)"/>
<path d="M0 0 C4.70588235 0.70588235 4.70588235 0.70588235 6 2 C6.04063832 3.66617115 6.042721 5.33388095 6 7 C4.0085944 7.38133299 2.00720923 7.71325582 0 8 C-1 7 -1 7 -1.125 4 C-1 1 -1 1 0 0 Z " fill="#D2D2D2" transform="translate(851,233)"/>
<path d="M0 0 C1.9375 0.75 1.9375 0.75 4 2 C4.8125 4 4.8125 4 5 6 C4.67 6.66 4.34 7.32 4 8 C2.02 8 0.04 8 -2 8 C-2.33 6.02 -2.66 4.04 -3 2 C-2.01 1.34 -1.02 0.68 0 0 Z " fill="#CECECE" transform="translate(847,204)"/>
<path d="M0 0 C2.375 0.1875 2.375 0.1875 5 1 C6.375 3.4375 6.375 3.4375 7 6 C6.67 6.66 6.34 7.32 6 8 C3.625 8.1875 3.625 8.1875 1 8 C-1 5 -1 5 -0.625 2.3125 C-0.41875 1.549375 -0.2125 0.78625 0 0 Z " fill="#D4D4D4" transform="translate(831,179)"/>
<path d="M0 0 C1.32 0.66 2.64 1.32 4 2 C3.67 3.65 3.34 5.3 3 7 C0.39417629 7.93065133 -0.64198224 8.14917407 -3.25 7.0625 C-3.8275 6.711875 -4.405 6.36125 -5 6 C-3.63016497 2.83884224 -3.0109362 2.0072908 0 0 Z " fill="#D5D5D5" transform="translate(803,605)"/>
<path d="M0 0 C2.3125 1.625 2.3125 1.625 4 4 C4.4375 7.125 4.4375 7.125 4 10 C3.01 10.66 2.02 11.32 1 12 C1 9.69 1 7.38 1 5 C0.34 4.67 -0.32 4.34 -1 4 C-1 3.34 -1 2.68 -1 2 C-2.98 2.66 -4.96 3.32 -7 4 C-7.33 5.98 -7.66 7.96 -8 10 C-8.33 10 -8.66 10 -9 10 C-9.25 6.6875 -9.25 6.6875 -9 3 C-6.35893733 -0.03233122 -3.92985113 -0.68772395 0 0 Z " fill="#6590C4" transform="translate(882,435)"/>
<path d="M0 0 C1.9375 0.25 1.9375 0.25 4 1 C6 4 6 4 5.625 6.1875 C5.41875 6.785625 5.2125 7.38375 5 8 C3.68 8.33 2.36 8.66 1 9 C-1.14809171 5.77786243 -1.29386153 4.72224599 -1 1 C-0.67 0.67 -0.34 0.34 0 0 Z " fill="#D4D4D4" transform="translate(868,288)"/>
<path d="M0 0 C1.32 0 2.64 0 4 0 C4 11.22 4 22.44 4 34 C2.02 33.67 0.04 33.34 -2 33 C-0.02 32.505 -0.02 32.505 2 32 C2.04938628 27.76417673 2.08571263 23.52850535 2.10986328 19.29248047 C2.11992963 17.85104453 2.1335838 16.40962905 2.15087891 14.96826172 C2.17510012 12.89806066 2.18647641 10.82812924 2.1953125 8.7578125 C2.21102295 6.88826904 2.21102295 6.88826904 2.22705078 4.98095703 C2.31652492 1.88228369 2.31652492 1.88228369 0 0 Z " fill="#FEEAC9" transform="translate(263,224)"/>
<path d="M0 0 C0 2 0 2 -2.1875 4.3125 C-3.115625 5.199375 -4.04375 6.08625 -5 7 C-5.886875 7.928125 -6.77375 8.85625 -7.6875 9.8125 C-10 12 -10 12 -12 12 C-12.33 13.32 -12.66 14.64 -13 16 C-13.66 16 -14.32 16 -15 16 C-13.42254867 10.39128416 -6.51337221 0 0 0 Z " fill="#EFB968" transform="translate(241,211)"/>
<path d="M0 0 C0 1.32 0 2.64 0 4 C-3 6 -3 6 -5.6875 5.625 C-6.450625 5.41875 -7.21375 5.2125 -8 5 C-7.67 3.35 -7.34 1.7 -7 0 C-3.86650268 -1.04449911 -3.01031744 -0.93423645 0 0 Z " fill="#D5D5D5" transform="translate(572,715)"/>
<path d="M0 0 C0.66 0 1.32 0 2 0 C3.85776765 3.13498292 4.20140476 5.37471432 4 9 C4.66 9 5.32 9 6 9 C7.57077907 14.02649303 8.44854729 18.76119922 9 24 C5 18 5 18 5 13 C4.34 13 3.68 13 3 13 C2.01 8.71 1.02 4.42 0 0 Z " fill="#F0BA6E" transform="translate(349,538)"/>
<path d="M0 0 C1.2065625 0.0309375 1.2065625 0.0309375 2.4375 0.0625 C3.36815133 2.66832371 3.58667407 3.70448224 2.5 6.3125 C1.9740625 7.17875 1.9740625 7.17875 1.4375 8.0625 C-0.2125 8.0625 -1.8625 8.0625 -3.5625 8.0625 C-3.60491723 5.72955225 -3.60342937 3.39547433 -3.5625 1.0625 C-2.5625 0.0625 -2.5625 0.0625 0 0 Z " fill="#D2D2D2" transform="translate(437.5625,425.9375)"/>
<path d="M0 0 C1.9375 1.375 1.9375 1.375 2.75 3.9375 C2.811875 4.741875 2.87375 5.54625 2.9375 6.375 C1.9375 7.375 1.9375 7.375 -1.125 7.4375 C-2.094375 7.416875 -3.06375 7.39625 -4.0625 7.375 C-4.0625 5.065 -4.0625 2.755 -4.0625 0.375 C-2.0625 -0.625 -2.0625 -0.625 0 0 Z " fill="#D0D0D0" transform="translate(920.0625,358.625)"/>
<path d="M0 0 C0.66 0 1.32 0 2 0 C2 6.93 2 13.86 2 21 C0.35 21 -1.3 21 -3 21 C-2.67 20.34 -2.34 19.68 -2 19 C-1.34 19 -0.68 19 0 19 C0 12.73 0 6.46 0 0 Z " fill="#FEF3DB" transform="translate(265,182)"/>
<path d="M0 0 C-0.99 0 -1.98 0 -3 0 C-3 0.66 -3 1.32 -3 2 C-4.76949612 2.50471197 -6.54065223 3.00360685 -8.3125 3.5 C-9.79169922 3.91765625 -9.79169922 3.91765625 -11.30078125 4.34375 C-14 5 -14 5 -17 5 C-17.33 5.99 -17.66 6.98 -18 8 C-20.64 8.33 -23.28 8.66 -26 9 C-24.39089587 5.78179174 -21.02010443 5.22831487 -17.8125 4 C-17.15185547 3.73960937 -16.49121094 3.47921875 -15.81054688 3.2109375 C-3.82922348 -1.47277826 -3.82922348 -1.47277826 0 0 Z " fill="#EFBF77" transform="translate(492,185)"/>
<path d="M0 0 C0.33 0.66 0.66 1.32 1 2 C1.99 2 2.98 2 4 2 C4 3.65 4 5.3 4 7 C-1.625 8.125 -1.625 8.125 -5 7 C-3.75023244 3.34683329 -3.32901247 2.21934164 0 0 Z " fill="#D9D1C2" transform="translate(718,626)"/>
<path d="M0 0 C1.65 0.33 3.3 0.66 5 1 C4.67 3.31 4.34 5.62 4 8 C2.68 8.33 1.36 8.66 0 9 C-1.125 6.75 -1.125 6.75 -2 4 C-1.125 1.6875 -1.125 1.6875 0 0 Z " fill="#D7D7D7" transform="translate(908,445)"/>
<path d="M0 0 C1.2065625 0.0309375 1.2065625 0.0309375 2.4375 0.0625 C3.125 1.8125 3.125 1.8125 3.4375 4.0625 C2.25 6.3125 2.25 6.3125 0.4375 8.0625 C-0.8825 8.0625 -2.2025 8.0625 -3.5625 8.0625 C-3.60491723 5.72955225 -3.60342937 3.39547433 -3.5625 1.0625 C-2.5625 0.0625 -2.5625 0.0625 0 0 Z " fill="#D2D2D1" transform="translate(448.5625,398.9375)"/>
<path d="M0 0 C2.01822917 0.06510417 4.03645833 0.13020833 6.0546875 0.1953125 C5.4565625 0.4634375 4.8584375 0.7315625 4.2421875 1.0078125 C1.97895389 2.23642503 0.53928173 3.08562596 -0.9453125 5.1953125 C-0.71487386 7.84997299 -0.71487386 7.84997299 0.0546875 10.1953125 C3.0246875 10.6903125 3.0246875 10.6903125 6.0546875 11.1953125 C6.0546875 11.5253125 6.0546875 11.8553125 6.0546875 12.1953125 C-0.29038292 12.55446743 -0.29038292 12.55446743 -2.8828125 11.1328125 C-4.53693834 8.11646539 -4.25107013 5.55864642 -3.9453125 2.1953125 C-1.9453125 0.1953125 -1.9453125 0.1953125 0 0 Z " fill="#4F76A1" transform="translate(733.9453125,325.8046875)"/>
<path d="M0 0 C1.32 0.66 2.64 1.32 4 2 C3.75 4.375 3.75 4.375 3 7 C1.0625 8.375 1.0625 8.375 -1 9 C-1.66 8.67 -2.32 8.34 -3 8 C-3.36923077 3.44615385 -3.36923077 3.44615385 -1.5 1.1875 C-1.005 0.795625 -0.51 0.40375 0 0 Z " fill="#D0D0D0" transform="translate(887,527)"/>
<path d="M0 0 C0.763125 0.20625 1.52625 0.4125 2.3125 0.625 C1.4375 5.5 1.4375 5.5 0.3125 6.625 C-1.35367115 6.66563832 -3.02138095 6.667721 -4.6875 6.625 C-5.0175 4.975 -5.3475 3.325 -5.6875 1.625 C-2.6875 -0.375 -2.6875 -0.375 0 0 Z " fill="#D2D2D2" transform="translate(477.6875,349.375)"/>
<path d="M0 0 C1.9375 1.0625 1.9375 1.0625 3 3 C3.1875 6.6875 3.1875 6.6875 3 10 C2.67 10 2.34 10 2 10 C1.34 7.69 0.68 5.38 0 3 C-2.41645782 2.83312552 -2.41645782 2.83312552 -5 3 C-7.1385485 5.1385485 -7.42655063 6.13275314 -8 9 C-8.66 9 -9.32 9 -10 9 C-10.35789474 3.63157895 -10.35789474 3.63157895 -8.9375 1.125 C-5.8930714 -0.64273274 -3.4368988 -0.36823916 0 0 Z " fill="#628FC5" transform="translate(819,341)"/>
<path d="M0 0 C0.66 0.33 1.32 0.66 2 1 C-2.76008307 6.5930976 -7.74595676 11.86877855 -13 17 C-13.99 16.67 -14.98 16.34 -16 16 C-12.28421934 11.04562579 -8.02717251 7.48819676 -3.109375 3.734375 C-0.91567926 2.17040067 -0.91567926 2.17040067 0 0 Z " fill="#FEF5E1" transform="translate(488,278)"/>
<path d="M0 0 C5.19642994 -0.20167257 9.71663478 0.46048538 14.6875 1.875 C15.33783203 2.04902344 15.98816406 2.22304687 16.65820312 2.40234375 C19.96067634 3.31128133 23.00905597 4.31901374 26 6 C22.1363451 7.48602111 19.77858633 6.40770863 16 5 C10.7144362 3.4043581 5.3958273 2.15013099 0 1 C0 0.67 0 0.34 0 0 Z " fill="#EAB86D" transform="translate(283,203)"/>
<path d="M0 0 C1.125 4.75 1.125 4.75 0 7 C-1.98 7 -3.96 7 -6 7 C-6.33 5.68 -6.66 4.36 -7 3 C-3.375 0 -3.375 0 0 0 Z " fill="#D1D0D0" transform="translate(597,701)"/>
<path d="M0 0 C0.66 0.33 1.32 0.66 2 1 C-1.62397489 6.5313301 -7.63195197 9.53142431 -14 11 C-16.24609375 10.578125 -16.24609375 10.578125 -18 10 C-17.03578125 9.52949219 -16.0715625 9.05898438 -15.078125 8.57421875 C-13.80197704 7.94552821 -12.52594126 7.31660993 -11.25 6.6875 C-10.61578125 6.37876953 -9.9815625 6.07003906 -9.328125 5.75195312 C-5.96852088 4.089649 -2.90141079 2.38120835 0 0 Z " fill="#F0BC70" transform="translate(618,602)"/>
<path d="M0 0 C0.94875 0.04125 1.8975 0.0825 2.875 0.125 C2.545 2.105 2.215 4.085 1.875 6.125 C0.225 6.455 -1.425 6.785 -3.125 7.125 C-3.785 5.475 -4.445 3.825 -5.125 2.125 C-3.125 0.125 -3.125 0.125 0 0 Z " fill="#D7D7D6" transform="translate(829.125,591.875)"/>
<path d="M0 0 C0.625 2.375 0.625 2.375 1 5 C0.34 5.66 -0.32 6.32 -1 7 C-3.625 6.625 -3.625 6.625 -6 6 C-6.33 4.68 -6.66 3.36 -7 2 C-4 0 -4 0 0 0 Z " fill="#D8D8D8" transform="translate(728,159)"/>
<path d="M0 0 C2.375 -0.1875 2.375 -0.1875 5 0 C7 3 7 3 6.625 5.1875 C6.41875 5.785625 6.2125 6.38375 6 7 C3.03 6.505 3.03 6.505 0 6 C-1.125 2.25 -1.125 2.25 0 0 Z " fill="#D3D3D3" transform="translate(883,313)"/>
<path d="M0 0 C0.99 0 1.98 0 3 0 C3.625 2.875 3.625 2.875 4 6 C3.34 6.66 2.68 7.32 2 8 C-0.625 7.625 -0.625 7.625 -3 7 C-3 5.68 -3 4.36 -3 3 C-2.34 3 -1.68 3 -1 3 C-0.67 2.01 -0.34 1.02 0 0 Z " fill="#D0D0CF" transform="translate(530,280)"/>
<path d="M0 0 C1.65 0 3.3 0 5 0 C5.625 2.3125 5.625 2.3125 6 5 C5.01 6.485 5.01 6.485 4 8 C2.68 7.67 1.36 7.34 0 7 C0 4.69 0 2.38 0 0 Z " fill="#CECECE" transform="translate(897,502)"/>
<path d="M0 0 C8.66540227 0.4053172 16.65773999 1.61005524 25 4 C25 4.33 25 4.66 25 5 C16.21095009 4.66015674 8.31097656 4.10928299 0 1 C0 0.67 0 0.34 0 0 Z " fill="#EAB86C" transform="translate(241,336)"/>
<path d="M0 0 C0.66 0 1.32 0 2 0 C2.13559675 2.56428515 2.23433188 5.12135216 2.3125 7.6875 C2.3753418 8.7693457 2.3753418 8.7693457 2.43945312 9.87304688 C2.53601771 14.10257569 2.34163268 15.56396881 -0.375 19.03125 C-3 21 -3 21 -5.3125 20.8125 C-5.869375 20.544375 -6.42625 20.27625 -7 20 C-6.21625 19.2575 -5.4325 18.515 -4.625 17.75 C-1.55495692 14.5337644 -0.11639223 12.66673676 0.1953125 8.203125 C0.17210937 7.22859375 0.14890625 6.2540625 0.125 5.25 C0.10695313 4.26515625 0.08890625 3.2803125 0.0703125 2.265625 C0.04710937 1.51796875 0.02390625 0.7703125 0 0 Z " fill="#EDB86A" transform="translate(301,296)"/>
<path d="M0 0 C1 2 1 2 0.25 4.3125 C-1.01118343 7.02404437 -2.30790527 9.53236186 -4 12 C-4.66 12 -5.32 12 -6 12 C-6.103125 12.763125 -6.20625 13.52625 -6.3125 14.3125 C-7.04364039 17.17059424 -7.76951913 18.15742885 -10 20 C-10 15.86234924 -8.06071232 12.97737529 -6.125 9.4375 C-5.57779297 8.40979492 -5.57779297 8.40979492 -5.01953125 7.36132812 C-3.53511217 4.61110442 -2.22183574 2.22183574 0 0 Z " fill="#EFBD71" transform="translate(379,273)"/>
<path d="M0 0 C3.46941546 0.45822468 6.67395049 0.89131683 10 2 C10 2.66 10 3.32 10 4 C10.515625 4.103125 11.03125 4.20625 11.5625 4.3125 C14.86026435 5.24263866 17.86633332 6.61395512 21 8 C18.63150654 8.82683893 17.35223221 9.10792077 14.921875 8.36328125 C14.20515625 8.01652344 13.4884375 7.66976562 12.75 7.3125 C11.97269531 6.94253906 11.19539062 6.57257813 10.39453125 6.19140625 C9.20923828 5.60166016 9.20923828 5.60166016 8 5 C7.22011719 4.61714844 6.44023438 4.23429688 5.63671875 3.83984375 C3.75160277 2.90565661 1.87491229 1.9545008 0 1 C0 0.67 0 0.34 0 0 Z " fill="#F0BD71" transform="translate(638,189)"/>
<path d="M0 0 C-0.33 1.98 -0.66 3.96 -1 6 C-2.875 6.625 -2.875 6.625 -5 7 C-5.66 6.34 -6.32 5.68 -7 5 C-7 3.68 -7 2.36 -7 1 C-4.53721199 -0.231394 -2.7204945 -0.07159196 0 0 Z " fill="#D3D3D3" transform="translate(854,574)"/>
<path d="M0 0 C-6.65594553 2.94397591 -12.75841435 3.64999003 -20 4 C-13.97138297 -0.01907802 -7.15620221 -2.11976591 0 0 Z " fill="#ECBB75" transform="translate(622,693)"/>
<path d="M0 0 C0.33 0 0.66 0 1 0 C1.12375 1.11375 1.2475 2.2275 1.375 3.375 C1.6465813 7.03103677 1.6465813 7.03103677 4 9 C6.32275177 9.40047444 8.65739357 9.7397104 11 10 C11 9.34 11 8.68 11 8 C11.66 8 12.32 8 13 8 C11.125 11.875 11.125 11.875 10 13 C8.33382885 13.04063832 6.66611905 13.042721 5 13 C5 12.34 5 11.68 5 11 C4.360625 10.690625 3.72125 10.38125 3.0625 10.0625 C1 9 1 9 0 8 C-0.14115161 5.32941149 -0.04247107 2.67567762 0 0 Z " fill="#D2A867" transform="translate(729,328)"/>
<path d="M0 0 C0.66 0 1.32 0 2 0 C1.50523351 5.64033795 0.58054378 9.94213419 -2 15 C-2.99 15.495 -2.99 15.495 -4 16 C-4 14.35 -4 12.7 -4 11 C-3.34 11 -2.68 11 -2 11 C-2.04125 10.29875 -2.0825 9.5975 -2.125 8.875 C-1.98331668 5.61628372 -1.13265314 3.0440053 0 0 Z " fill="#EEBE78" transform="translate(763,539)"/>
<path d="M0 0 C0 3 0 3 -2 6 C-2.23183367 10.17300608 -1.98419339 13.94020228 -1 18 C-4 16 -4 16 -5 13 C-5.50628366 7.76840215 -5.50628366 7.76840215 -5 5 C-2.5 2 -2.5 2 0 0 Z " fill="#EDB768" transform="translate(250,230)"/>
<path d="M0 0 C-3.54471481 1.92105859 -6.89335381 2.74555702 -10.81640625 3.55078125 C-12.51379212 3.89997512 -14.19818455 4.31256988 -15.875 4.75 C-18 5 -18 5 -21 3 C-18.25244513 2.30111323 -15.50268803 1.6156012 -12.75 0.9375 C-11.97269531 0.73833984 -11.19539062 0.53917969 -10.39453125 0.33398438 C-9.64042969 0.15029297 -8.88632812 -0.03339844 -8.109375 -0.22265625 C-7.07248535 -0.48187866 -7.07248535 -0.48187866 -6.01464844 -0.74633789 C-3.74929191 -1.03156637 -2.1631688 -0.68076195 0 0 Z " fill="#FCEED4" transform="translate(611,697)"/>
<path d="M0 0 C0.33 0 0.66 0 1 0 C1.41953291 6.29299361 0.22777513 12.09333017 -2 18 C-2.66 18.33 -3.32 18.66 -4 19 C-3.37968409 12.42465139 -1.85102717 6.33307408 0 0 Z " fill="#ECBE79" transform="translate(682,495)"/>
<path d="M0 0 C2.64 0 5.28 0 8 0 C8 0.66 8 1.32 8 2 C8.99 2 9.98 2 11 2 C11 2.66 11 3.32 11 4 C12.65 4.33 14.3 4.66 16 5 C16 5.66 16 6.32 16 7 C13.03 6.01 10.06 5.02 7 4 C7 3.34 7 2.68 7 2 C4.69 1.67 2.38 1.34 0 1 C0 0.67 0 0.34 0 0 Z " fill="#ECBC71" transform="translate(291,225)"/>
<path d="M0 0 C5.15464734 0.48324819 8.81550319 3.18610761 13 6 C12.625 8.4375 12.625 8.4375 12 11 C11.01 11.495 11.01 11.495 10 12 C10.020625 11.113125 10.04125 10.22625 10.0625 9.3125 C8.79616013 5.36449922 7.95638526 5.04990746 4.4375 3.125 C2.96833545 2.3961477 1.49188303 1.68114255 0 1 C0 0.67 0 0.34 0 0 Z " fill="#ECB96B" transform="translate(309,210)"/>
<path d="M0 0 C0 1.65 0 3.3 0 5 C-0.33 3.68 -0.66 2.36 -1 1 C-5.29 1.99 -9.58 2.98 -14 4 C-14 3.34 -14 2.68 -14 2 C-13.01 2 -12.02 2 -11 2 C-11 1.34 -11 0.68 -11 0 C-6.98195309 -0.84098656 -3.98196457 -1.05404945 0 0 Z " fill="#EDB766" transform="translate(269,223)"/>
<path d="M0 0 C5.28 1.65 10.56 3.3 16 5 C16 5.33 16 5.66 16 6 C10.06997733 6.37851209 5.52760359 5.10575375 0 3 C0 2.01 0 1.02 0 0 Z " fill="#ECBC72" transform="translate(245,314)"/>
<path d="M0 0 C0.66 0 1.32 0 2 0 C2 2 2 2 -0.0625 4.375 C-3.28883617 7.25810891 -6.12411159 9.09862078 -10 11 C-10.66 10.67 -11.32 10.34 -12 10 C-11.278125 9.608125 -10.55625 9.21625 -9.8125 8.8125 C-6.76252485 6.84696046 -4.49168084 4.62636629 -2 2 C-1.34 1.34 -0.68 0.68 0 0 Z " fill="#F2C179" transform="translate(632,591)"/>
<path d="M0 0 C5.76044212 0.60636233 10.72014369 2.75658279 16 5 C13.15436715 6.42281643 11.59564586 5.57172876 8.5625 4.75 C7.59441406 4.49734375 6.62632812 4.2446875 5.62890625 3.984375 C3.00317907 3.00119038 1.76612691 2.13132604 0 0 Z " fill="#F0BD75" transform="translate(473,685)"/>
<path d="M0 0 C0.66 0.99 1.32 1.98 2 3 C-0.64 2.67 -3.28 2.34 -6 2 C-6 2.66 -6 3.32 -6 4 C-6.66 4 -7.32 4 -8 4 C-8 5.98 -8 7.96 -8 10 C-8.33 10 -8.66 10 -9 10 C-9.25 6.6875 -9.25 6.6875 -9 3 C-6.35975692 -0.0313902 -3.93579364 -0.6214411 0 0 Z " fill="#5E8BC3" transform="translate(850,388)"/>
<path d="M0 0 C4.2618617 5.23046663 5.26464369 9.25158598 5 16 C1.75709826 11.1356474 -0.55811184 5.95319301 0 0 Z " fill="#FBEAC7" transform="translate(768,342)"/>
<path d="M0 0 C0.33 0 0.66 0 1 0 C1 1.98 1 3.96 1 6 C0.34 6 -0.32 6 -1 6 C-1.33 8.97 -1.66 11.94 -2 15 C-2.66 15 -3.32 15 -4 15 C-3.50341703 9.33895411 -2.45489316 5.12325529 0 0 Z " fill="#EFBC73" transform="translate(356,317)"/>
<path d="M0 0 C5.66104589 0.49658297 9.87674471 1.54510684 15 4 C11.64102455 5.14266516 9.69549648 4.85911331 6.375 3.6875 C5.21097656 3.29111328 5.21097656 3.29111328 4.0234375 2.88671875 C2 2 2 2 0 0 Z " fill="#ECBE79" transform="translate(283,262)"/>
<path d="M0 0 C4.59092706 -0.22058508 8.05455252 0.4638409 12.375 2 C13.43460938 2.37125 14.49421875 2.7425 15.5859375 3.125 C16.38257813 3.41375 17.17921875 3.7025 18 4 C18 4.33 18 4.66 18 5 C6.07509254 3.699101 6.07509254 3.699101 1 2 C0.67 1.34 0.34 0.68 0 0 Z " fill="#EEBC72" transform="translate(608,179)"/>
<path d="M0 0 C3.63 0 7.26 0 11 0 C12.28317892 3.84953676 12.06643637 6.94738135 12 11 C11.34 11 10.68 11 10 11 C10.04125 9.88625 10.0825 8.7725 10.125 7.625 C10.41121859 3.95633975 10.41121859 3.95633975 8 2 C5.34462628 1.43479997 2.70855287 1.26211802 0 1 C0 0.67 0 0.34 0 0 Z " fill="#D4A965" transform="translate(732,325)"/>
<path d="M0 0 C4.97166604 0.473492 8.10996636 1.85092515 12 5 C12 5.99 12 6.98 12 8 C10 7 8 6 6 5 C6 4.34 6 3.68 6 3 C5.38125 2.87625 4.7625 2.7525 4.125 2.625 C2 2 2 2 0 0 Z " fill="#F0BB72" transform="translate(610,268)"/>
<path d="M0 0 C3.76279642 4.44694123 5.00294573 9.35002579 6 15 C3.00701346 12.43458297 1.49360038 9.6273152 0 6 C-0.1875 2.625 -0.1875 2.625 0 0 Z " fill="#ECB562" transform="translate(224,249)"/>
<path d="M0 0 C7.8049778 6.22259874 7.8049778 6.22259874 10 11 C10 11.99 10 12.98 10 14 C8.69979989 12.61211198 7.4101807 11.21430742 6.125 9.8125 C5.40570312 9.03519531 4.68640625 8.25789062 3.9453125 7.45703125 C2.0182908 5.02310224 0.98699889 2.92463354 0 0 Z " fill="#EFBD76" transform="translate(715,244)"/>
<path d="M0 0 C1.98 0.99 1.98 0.99 4 2 C3.67 3.98 3.34 5.96 3 8 C2.01 8 1.02 8 0 8 C0 5.36 0 2.72 0 0 Z " fill="#D6D3CD" transform="translate(429,454)"/>
<path d="M0 0 C0 1.98 0 3.96 0 6 C-1.65 5.67 -3.3 5.34 -5 5 C-5 3.68 -5 2.36 -5 1 C-3 0 -3 0 0 0 Z " fill="#CDCDCE" transform="translate(918,417)"/>
<path d="M0 0 C2.0625 0.4375 2.0625 0.4375 4 1 C4 2.65 4 4.3 4 6 C2.35 6 0.7 6 -1 6 C-1.042721 4.33388095 -1.04063832 2.66617115 -1 1 C-0.67 0.67 -0.34 0.34 0 0 Z " fill="#D0D1D2" transform="translate(918,388)"/>
<path d="M0 0 C3.76419087 5.6462863 4.44179226 11.38964515 5 18 C4.34 17.67 3.68 17.34 3 17 C2.1484375 14.19921875 2.1484375 14.19921875 1.375 10.6875 C1.11460937 9.53636719 0.85421875 8.38523437 0.5859375 7.19921875 C0 4 0 4 0 0 Z " fill="#EEB664" transform="translate(764,331)"/>
<path d="M0 0 C0.99 0 1.98 0 3 0 C3.33 1.98 3.66 3.96 4 6 C2.68 6.33 1.36 6.66 0 7 C0 4.69 0 2.38 0 0 Z " fill="#CFCFCF" transform="translate(510,718)"/>
<path d="M0 0 C0.96661363 3.12180401 0.98988909 5.52083795 0.5625 8.75 C0.40974609 9.94882812 0.40974609 9.94882812 0.25390625 11.171875 C0.12822266 12.07679688 0.12822266 12.07679688 0 13 C-0.66 13 -1.32 13 -2 13 C-2.33 13.66 -2.66 14.32 -3 15 C-2.44854729 9.76119922 -1.57077907 5.02649303 0 0 Z " fill="#FCEDCE" transform="translate(435,370)"/>
<path d="M0 0 C4.55712436 0.5425148 8.02568234 1.6893502 12 4 C12.33 4.66 12.66 5.32 13 6 C12.39671875 5.79503906 11.7934375 5.59007812 11.171875 5.37890625 C10.37265625 5.10949219 9.5734375 4.84007812 8.75 4.5625 C7.96109375 4.29566406 7.1721875 4.02882813 6.359375 3.75390625 C4.25178012 3.08045292 2.15246027 2.50849405 0 2 C0 1.34 0 0.68 0 0 Z " fill="#ECB86A" transform="translate(298,267)"/>
<path d="M0 0 C-1.56020867 0.65134925 -3.12328579 1.29582964 -4.6875 1.9375 C-5.55761719 2.29714844 -6.42773438 2.65679687 -7.32421875 3.02734375 C-9.88179265 3.9570312 -12.3221323 4.54162625 -15 5 C-12.86699672 2.63442627 -11.04050601 1.37032472 -8.0625 0.25 C-7.39347656 -0.01296875 -6.72445312 -0.2759375 -6.03515625 -0.546875 C-3.68352509 -1.07046274 -2.26382477 -0.74954377 0 0 Z " fill="#EBBF7D" transform="translate(256,206)"/>
<path d="M0 0 C1.32 0 2.64 0 4 0 C4 1.65 4 3.3 4 5 C3.01 5.33 2.02 5.66 1 6 C1 5.34 1 4.68 1 4 C0.34 4 -0.32 4 -1 4 C-0.67 2.68 -0.34 1.36 0 0 Z " fill="#CECECD" transform="translate(438,675)"/>
<path d="M0 0 C2.31 0.33 4.62 0.66 7 1 C7 1.66 7 2.32 7 3 C8.423125 2.938125 8.423125 2.938125 9.875 2.875 C13 3 13 3 15 5 C4.24281984 4.39425587 4.24281984 4.39425587 0 1 C0 0.67 0 0.34 0 0 Z " fill="#FDF0D6" transform="translate(517,612)"/>
<path d="M0 0 C4.62 1.65 9.24 3.3 14 5 C14 5.33 14 5.66 14 6 C8.58609132 5.53328373 4.79482068 4.75702189 0 2 C0 1.34 0 0.68 0 0 Z " fill="#EBB668" transform="translate(254,253)"/>
<path d="M0 0 C0 3.57575896 -1.08840607 5.05295935 -3 8 C-7.875 6.25 -7.875 6.25 -9 4 C-6.03 4.495 -6.03 4.495 -3 5 C-3 4.01 -3 3.02 -3 2 C-2.01 1.34 -1.02 0.68 0 0 Z " fill="#EDC589" transform="translate(316,228)"/>
<path d="M0 0 C1.485 0.99 1.485 0.99 3 2 C3 2.66 3 3.32 3 4 C3.66 4 4.32 4 5 4 C5.33 5.65 5.66 7.3 6 9 C5.01 8.67 4.02 8.34 3 8 C3 7.34 3 6.68 3 6 C2.34 6 1.68 6 1 6 C0.67 4.02 0.34 2.04 0 0 Z " fill="#F2C17A" transform="translate(456,557)"/>
<path d="M0 0 C1.18771723 3.42943519 0.80226223 5.37784675 -0.4375 8.75 C-0.86869141 9.94882812 -0.86869141 9.94882812 -1.30859375 11.171875 C-1.65083984 12.07679688 -1.65083984 12.07679688 -2 13 C-2.33 13 -2.66 13 -3 13 C-3.31563182 7.73946963 -2.66590937 4.55426184 0 0 Z " fill="#EDB565" transform="translate(768,526)"/>
<path d="M0 0 C5.28137429 0.51525603 8.57221156 2.25477117 13 5 C12.01 5.495 12.01 5.495 11 6 C8.90625 5.29296875 8.90625 5.29296875 6.5 4.1875 C5.7059375 3.83042969 4.911875 3.47335937 4.09375 3.10546875 C2 2 2 2 0 0 Z " fill="#ECBF78" transform="translate(228,330)"/>
<path d="M0 0 C-0.639375 0.103125 -1.27875 0.20625 -1.9375 0.3125 C-2.618125 0.539375 -3.29875 0.76625 -4 1 C-4.33 1.99 -4.66 2.98 -5 4 C-7.64 4.33 -10.28 4.66 -13 5 C-11.5977422 2.1954844 -9.93929378 1.9557882 -7.0625 0.8125 C-6.16660156 0.44769531 -5.27070313 0.08289063 -4.34765625 -0.29296875 C-2 -1 -2 -1 0 0 Z " fill="#F2C888" transform="translate(479,189)"/>
<path d="M0 0 C2.31 0.33 4.62 0.66 7 1 C7 1.66 7 2.32 7 3 C8.65 3.33 10.3 3.66 12 4 C8.64474971 5.11841676 8.02910146 4.91538821 4.875 3.6875 C4.17117188 3.42324219 3.46734375 3.15898437 2.7421875 2.88671875 C1 2 1 2 0 0 Z " fill="#EFBC72" transform="translate(626,184)"/>
<path d="M0 0 C7.57142857 3 7.57142857 3 10 6 C3.52443609 5.38909774 3.52443609 5.38909774 1.0625 3.5625 C0 2 0 2 0 0 Z " fill="#EDBA71" transform="translate(498,603)"/>
<path d="M0 0 C0.33 1.32 0.66 2.64 1 4 C0.01 4.33 -0.98 4.66 -2 5 C-2 5.66 -2 6.32 -2 7 C-2.66 7 -3.32 7 -4 7 C-4.33 7.99 -4.66 8.98 -5 10 C-5.66 9.67 -6.32 9.34 -7 9 C-6.34 8.01 -5.68 7.02 -5 6 C-4.34 6 -3.68 6 -3 6 C-2.690625 5.195625 -2.38125 4.39125 -2.0625 3.5625 C-1 1 -1 1 0 0 Z " fill="#F0C078" transform="translate(653,567)"/>
<path d="M0 0 C1.32 0.66 2.64 1.32 4 2 C3.67 2.99 3.34 3.98 3 5 C1.68 4.67 0.36 4.34 -1 4 C-1.66 5.32 -2.32 6.64 -3 8 C-3.36923077 3.44615385 -3.36923077 3.44615385 -1.5 1.1875 C-1.005 0.795625 -0.51 0.40375 0 0 Z " fill="#DCDCDC" transform="translate(887,527)"/>
<path d="M0 0 C0.99 0.33 1.98 0.66 3 1 C2.67 2.32 2.34 3.64 2 5 C0.02 5 -1.96 5 -4 5 C-4.33 4.01 -4.66 3.02 -5 2 C-3.68 2.33 -2.36 2.66 -1 3 C-0.67 2.01 -0.34 1.02 0 0 Z " fill="#D7D7D7" transform="translate(849,207)"/>
<path d="M0 0 C3.46941546 0.45822468 6.67395049 0.89131683 10 2 C10 2.66 10 3.32 10 4 C6.28111761 3.49287967 3.26545761 2.88391785 0 1 C0 0.67 0 0.34 0 0 Z " fill="#F2C586" transform="translate(638,189)"/>
<path d="M0 0 C0.33 0 0.66 0 1 0 C1.125 2.875 1.125 2.875 1 6 C0.34 6.66 -0.32 7.32 -1 8 C-1.99 7.67 -2.98 7.34 -4 7 C-2.68 4.69 -1.36 2.38 0 0 Z " fill="#F1B968" transform="translate(662,552)"/>
<path d="M0 0 C0.103125 0.598125 0.20625 1.19625 0.3125 1.8125 C1.08876455 4.28243264 2.07088921 5.32251235 4 7 C2.35 7.33 0.7 7.66 -1 8 C-1.93065133 5.39417629 -2.14917407 4.35801776 -1.0625 1.75 C-0.711875 1.1725 -0.36125 0.595 0 0 Z " fill="#D8D8D8" transform="translate(869,552)"/>
<path d="M0 0 C1.25127906 3.54667178 0.72285053 5.72253438 -0.4375 9.25 C-0.72496094 10.14203125 -1.01242187 11.0340625 -1.30859375 11.953125 C-1.53675781 12.62859375 -1.76492188 13.3040625 -2 14 C-2.33 14 -2.66 14 -3 14 C-3.34615998 8.34605369 -2.43425238 4.96993194 0 0 Z " fill="#EEB768" transform="translate(772,511)"/>
<path d="M0 0 C2.97 0.33 5.94 0.66 9 1 C9 3.64 9 6.28 9 9 C8.67 9 8.34 9 8 9 C7.79375 8.05125 7.5875 7.1025 7.375 6.125 C6.29166667 2.70833333 6.29166667 2.70833333 2.875 1.625 C1.451875 1.315625 1.451875 1.315625 0 1 C0 0.67 0 0.34 0 0 Z " fill="#B9A17E" transform="translate(766,372)"/>
<path d="M0 0 C-0.33 1.65 -0.66 3.3 -1 5 C-1.33 4.34 -1.66 3.68 -2 3 C-3.32 3.33 -4.64 3.66 -6 4 C-6 3.01 -6 2.02 -6 1 C-3.92446352 0.4465236 -2.15634036 0 0 0 Z " fill="#C5C5C3" transform="translate(780,617)"/>
<path d="M0 0 C-0.33 1.65 -0.66 3.3 -1 5 C-1.99 5 -2.98 5 -4 5 C-4.33 3.68 -4.66 2.36 -5 1 C-3 0 -3 0 0 0 Z " fill="#CCCCCC" transform="translate(832,593)"/>
<path d="M0 0 C0.99 0 1.98 0 3 0 C3 1.65 3 3.3 3 5 C1.68 5.33 0.36 5.66 -1 6 C-1.042721 4.33388095 -1.04063832 2.66617115 -1 1 C-0.67 0.67 -0.34 0.34 0 0 Z " fill="#C8C9C9" transform="translate(907,475)"/>
<path d="M0 0 C1.65 0 3.3 0 5 0 C5.625 1.875 5.625 1.875 6 4 C5.34 4.66 4.68 5.32 4 6 C3.67 5.01 3.34 4.02 3 3 C1.68 3 0.36 3 -1 3 C-0.67 2.01 -0.34 1.02 0 0 Z " fill="#DCDCDB" transform="translate(446,399)"/>
<path d="M0 0 C4.455 0.99 4.455 0.99 9 2 C8.67 2.66 8.34 3.32 8 4 C6.02 4 4.04 4 2 4 C1.34 2.68 0.68 1.36 0 0 Z " fill="#5B7CA1" transform="translate(763,382)"/>
<path d="M0 0 C2.97069541 2.54631035 4.4775751 5.42230149 6 9 C5.67 9.66 5.34 10.32 5 11 C1.7089159 7.39042389 0.45336079 4.87362847 0 0 Z " fill="#EFBD77" transform="translate(742,282)"/>
<path d="M0 0 C0.33 0.99 0.66 1.98 1 3 C0.01 3 -0.98 3 -2 3 C-2.33 3.99 -2.66 4.98 -3 6 C-4.32 5.67 -5.64 5.34 -7 5 C-4.69 3.35 -2.38 1.7 0 0 Z " fill="#F2C27A" transform="translate(428,218)"/>
<path d="M0 0 C1.65 0.33 3.3 0.66 5 1 C4.01 2.485 4.01 2.485 3 4 C1.68 4 0.36 4 -1 4 C-0.67 2.68 -0.34 1.36 0 0 Z " fill="#CECECE" transform="translate(722,160)"/>
<path d="M0 0 C0.33 0 0.66 0 1 0 C1.25 3.25 1.25 3.25 1 7 C-0.32 8.32 -1.64 9.64 -3 11 C-2.01 7.37 -1.02 3.74 0 0 Z " fill="#FCEBCF" transform="translate(768,530)"/>
<path d="M0 0 C0.99 0 1.98 0 3 0 C2.67 1.32 2.34 2.64 2 4 C0.68 4.33 -0.64 4.66 -2 5 C-1.125 1.125 -1.125 1.125 0 0 Z " fill="#CBCBCB" transform="translate(461,374)"/>
<path d="M0 0 C0.33 1.32 0.66 2.64 1 4 C-0.32 4.99 -1.64 5.98 -3 7 C-3.66 6.67 -4.32 6.34 -5 6 C-3.35 4.02 -1.7 2.04 0 0 Z " fill="#EEBE77" transform="translate(402,242)"/>
<path d="M0 0 C0.99 0.33 1.98 0.66 3 1 C3 2.65 3 4.3 3 6 C2.01 6 1.02 6 0 6 C0 4.02 0 2.04 0 0 Z " fill="#CECECE" transform="translate(550,262)"/>
</svg>
